<svg xmlns="http://www.w3.org/2000/svg" width="69" height="48" viewBox="0 0 69 48"><g fill="none" fill-rule="evenodd"><rect width="69" height="48" fill="#FFF"/><g fill="#002048" fill-rule="nonzero" transform="translate(7 13)"><polygon points="4.681 0 4.681 22.07 0 22.07 0 0"/><path d="M7.74591892 10.4543401C7.17607373 10.4543401 6.72549846 10.6349015 6.24510572 10.9049154L6.24510572 10.664719C7.11478224 9.37428468 8.79615686 8.2345943 10.7458888 8.2345943 13.4162099 8.2345943 14.5260828 9.73540751 14.5260828 12.1357147L14.5260828 22.0467141 9.8463948 22.0467141 9.8463948 12.4653635C9.8463948 11.0540028 9.09598819 10.4543401 7.74591892 10.4543401ZM9.65920728 3.78682007C9.65920728 2.25618939 10.8287151 1.29706042 12.1787844 1.29706042 13.5884886 1.29706042 14.7298356 2.25784591 14.7298356 3.78682007 14.7298356 5.31745076 13.4990362 6.21694476 12.1787844 6.21694476 10.8883501 6.21694476 9.65920728 5.31745076 9.65920728 3.78682007Z"/><path d="M1.20760798 2.87904343 1.22582977 2.87904343C1.30865611 2.70013855 1.45774351 2.53779893 1.6681224 2.39202458 1.88015782 2.24625023 2.1518282 2.17336305 2.4864466 2.17336305 2.77302572 2.17336305 3.01487862 2.22140233 3.21531835 2.31582435 3.41575809 2.4119029 3.5780977 2.5361424 3.70233721 2.69185591 3.82823324 2.84756942 3.91768568 3.02647431 3.97069454 3.22857057 4.02370339 3.43066683 4.05186435 3.64270225 4.05186435 3.8630203L4.05186435 6.57309801 2.97843503 6.57309801 2.97843503 4.39973496C2.97843503 4.28046503 2.97180893 4.1479429 2.96021324 4.00216854 2.94861755 3.85639419 2.91714355 3.71890248 2.86579122 3.59134992 2.81443889 3.46379736 2.73658213 3.35612313 2.6289079 3.26998374 2.52123366 3.18384435 2.37545931 3.14077465 2.18992832 3.14077465 2.01102343 3.14077465 1.8602795 3.17059213 1.73769652 3.23022709 1.61511355 3.28986206 1.51406542 3.37103187 1.43289561 3.47208 1.3517258 3.57312812 1.29374736 3.68908499 1.2589603 3.82160713 1.22251672 3.95247274 1.20595145 4.08996446 1.20595145 4.23242576L1.20595145 6.57641106.132522137 6.57641106.132522137-2.35406605e-15 1.20595145-2.35406605e-15 1.20595145 2.87904343 1.20760798 2.87904343ZM9.21360159 6.57475453 8.19318113 6.57475453 8.19318113 5.88563942 8.17495934 5.88563942C8.07391121 6.10098789 7.9181977 6.28651888 7.70947533 6.44554545 7.50075297 6.60291549 7.2174869 6.68242877 6.85967713 6.68242877 6.57309801 6.68242877 6.32958858 6.63604602 6.13080537 6.54328053 5.93036564 6.45051503 5.76802602 6.32627553 5.64378652 6.16724896 5.51789049 6.00987892 5.42843805 5.82931751 5.37542919 5.62556473 5.32242034 5.42346847 5.29425938 5.21143305 5.29425938 4.99111499L5.29425938 2.28103729 6.36768869 2.28103729 6.36768869 4.45440034C6.36768869 4.57367026 6.3743148 4.7061924 6.38591049 4.85196675 6.39750617 4.9977411 6.42898018 5.13523282 6.48033251 5.26278537 6.53168484 5.39033793 6.60788507 5.49801217 6.71224625 5.58415156 6.81660743 5.67029095 6.96403831 5.71336064 7.15453888 5.71336064 7.33344377 5.71336064 7.4841877 5.68354316 7.60677068 5.6239082 7.72935365 5.56427324 7.83040178 5.48310343 7.91157159 5.3820553 7.9927414 5.28100717 8.05071984 5.1650503 8.0855069 5.03252816 8.12195048 4.90166255 8.13851575 4.76417083 8.13851575 4.62170954L8.13851575 2.28103729 9.21194506 2.28103729 9.21194506 6.57475453 9.21360159 6.57475453ZM10.1114391 2.28103729 11.2925426 2.28103729 12.491868 5.25947232 12.5100898 5.25947232 13.5835191 2.28103729 14.7016746 2.28103729 12.6707728 7.49578339C12.5929161 7.69787965 12.5084332 7.87678453 12.4156677 8.02752846 12.3229022 8.17992892 12.215228 8.30748148 12.089332 8.41184266 11.9634359 8.51620384 11.8160051 8.5940606 11.6470393 8.6437564 11.4764171 8.69510873 11.2726643 8.71995663 11.0341245 8.71995663 10.7541714 8.71995663 10.479188 8.68351304 10.2108307 8.61228239L10.3450093 7.64652732C10.4278357 7.6763448 10.5156316 7.7011927 10.6083971 7.72272755 10.7011626 7.74260587 10.7939281 7.75420155 10.8900066 7.75420155 11.0208722 7.75420155 11.1318595 7.74260587 11.221312 7.71775797 11.3107644 7.69456659 11.3869646 7.65646648 11.4499127 7.60677068 11.5128607 7.55541835 11.564213 7.49081381 11.6072827 7.409644 11.6486959 7.32847419 11.6934221 7.23239564 11.7414614 7.11975182L11.9468707 6.60954159 10.1114391 2.28103729ZM19.6977592 2.28103729 19.6977592 6.19044033C19.6977592 6.57806759 19.6497199 6.92925125 19.5552979 7.2423348 19.4592193 7.55541835 19.3117884 7.82046262 19.1130052 8.03912415 18.9125655 8.25612915 18.6607734 8.42509487 18.3576291 8.5443648 18.0528281 8.66363472 17.6933618 8.72326968 17.2759171 8.72326968 16.8766942 8.72326968 16.4973496 8.67191735 16.1395398 8.57086922 15.78173 8.4698211 15.4504247 8.2842901 15.1472803 8.01593278L15.7916692 7.13963014C16.0070176 7.33675682 16.2306488 7.48915728 16.4625625 7.59517499 16.6944762 7.70284923 16.9628336 7.75585808 17.2676345 7.75585808 17.5243961 7.75585808 17.7397446 7.71941449 17.916993 7.64818384 18.0925848 7.5769532 18.2333896 7.47756159 18.3377507 7.35332209 18.4421119 7.22908259 18.5166556 7.07668213 18.5613818 6.9010903 18.6061081 6.72549846 18.6292994 6.53002831 18.6292994 6.31467984L18.6292994 6.00159629 18.6110776 6.00159629C18.4553641 6.21031866 18.2499548 6.36768869 17.9931932 6.47039335 17.7364315 6.57475453 17.4747003 6.62776339 17.206343 6.62776339 16.8849768 6.62776339 16.5917716 6.56978495 16.3300404 6.45382808 16.0683091 6.33787121 15.8430215 6.18050117 15.6541775 5.9833745 15.4669899 5.78624782 15.3212156 5.55433408 15.2201675 5.28597675 15.1191193 5.01761942 15.067767 4.7310403 15.067767 4.42789591 15.067767 4.11149931 15.1158063 3.81663755 15.2102283 3.54165412 15.3063068 3.26667068 15.4454551 3.02813084 15.6309861 2.82603458 15.8165171 2.62393832 16.0384917 2.46325523 16.2969098 2.34729836 16.5569845 2.23134149 16.8535028 2.17336305 17.1864647 2.17336305 17.4912656 2.17336305 17.7745317 2.23299801 18.0362629 2.35226794 18.2979941 2.47153786 18.5067165 2.66203843 18.66243 2.92542618L18.6806518 2.92542618 18.6806518 2.28103729 19.6977592 2.28103729 19.6977592 2.28103729ZM17.4067827 3.13911813C17.2162822 3.13911813 17.0423468 3.17059213 16.8882899 3.23354015 16.7325764 3.29648816 16.6000542 3.38262755 16.4907235 3.49361484 16.3797362 3.60460213 16.2935968 3.7387808 16.2306488 3.89615083 16.1677007 4.05352087 16.1362267 4.2291127 16.1362267 4.41961328 16.1362267 4.59189205 16.1677007 4.75423167 16.2306488 4.90331908 16.2935968 5.05240648 16.3813927 5.18327209 16.4940365 5.29757244 16.6066803 5.41021625 16.740859 5.49966869 16.8965725 5.56592976 17.052286 5.63219083 17.2179387 5.66366484 17.3968436 5.66366484 17.5939702 5.66366484 17.7712186 5.63053431 17.9285886 5.56592976 18.0859587 5.49966869 18.2201373 5.41187278 18.3311246 5.30254202 18.4421119 5.19155473 18.5265948 5.05903259 18.5862297 4.9049756 18.6458647 4.74926209 18.6756822 4.58360942 18.6756822 4.40470454 18.6756822 4.02867297 18.5630384 3.72552858 18.3360942 3.49195832 18.1108066 3.255075 17.8010361 3.13911813 17.4067827 3.13911813ZM21.7236913 4.80227095C21.7601349 5.12363713 21.8843744 5.37542919 22.0997229 5.55433408 22.3150714 5.73323896 22.5734895 5.8226914 22.8782905 5.8226914 23.1466478 5.8226914 23.3719354 5.76802602 23.5541534 5.65703873 23.7363713 5.54605144 23.8953979 5.40855973 24.0328896 5.24125053L24.801518 5.8226914C24.5513824 6.1324619 24.2714294 6.35443648 23.9600024 6.48530209 23.6502319 6.6161677 23.3255527 6.68242877 22.9843082 6.68242877 22.662942 6.68242877 22.3581411 6.62941991 22.071562 6.52174568 21.7849828 6.41407144 21.5381604 6.26167098 21.329438 6.06620083 21.1207156 5.86907415 20.9550629 5.63219083 20.83248 5.35555087 20.709897 5.07891091 20.6486055 4.76914041 20.6486055 4.42955244 20.6486055 4.08996446 20.709897 3.78019396 20.83248 3.503554 20.9550629 3.22691404 21.1207156 2.98837419 21.329438 2.79290404 21.5381604 2.59577736 21.7849828 2.44337691 22.071562 2.3373592 22.3581411 2.22968496 22.6612855 2.1766761 22.9843082 2.1766761 23.282483 2.1766761 23.5558099 2.22968496 23.8026324 2.33404614 24.0494549 2.43840732 24.2614903 2.58915126 24.4370821 2.78627794 24.6126739 2.98340461 24.7501657 3.22691404 24.8479007 3.51514969 24.9456358 3.80504186 24.9953316 4.13634721 24.9953316 4.51237877L24.9953316 4.80724053 21.7236913 4.80724053 21.7236913 4.80227095ZM23.9235588 3.99719896C23.9169327 3.68080236 23.8191976 3.43232335 23.6286971 3.25010542 23.4381965 3.06788748 23.1731522 2.97677851 22.8319077 2.97677851 22.5105415 2.97677851 22.2554364 3.069544 22.0665924 3.25341847 21.8794049 3.43894946 21.763448 3.68577194 21.7220348 3.99554244L23.9235588 3.99554244 23.9235588 3.99719896ZM26.0157521 2.28103729 27.0361725 2.28103729 27.0361725 2.9701524 27.0543943 2.9701524C27.1554424 2.75480393 27.311156 2.56927294 27.5198783 2.41024637 27.7286007 2.25287633 28.0118668 2.17336305 28.3696765 2.17336305 28.6562556 2.17336305 28.8981085 2.22140233 29.0985483 2.31582435 29.298988 2.4119029 29.4613276 2.5361424 29.5855671 2.69185591 29.7114632 2.84756942 29.8009156 3.02647431 29.8539245 3.22857057 29.9069333 3.43066683 29.9350943 3.64270225 29.9350943 3.8630203L29.9350943 6.57309801 28.861665 6.57309801 28.861665 4.39973496C28.861665 4.28046503 28.8550389 4.1479429 28.8434432 4.00216854 28.8318475 3.85639419 28.8003735 3.71890248 28.7490211 3.59134992 28.6976688 3.46379736 28.6198121 3.35612313 28.5121378 3.26998374 28.4044636 3.18384435 28.2586892 3.14077465 28.0731582 3.14077465 27.8942534 3.14077465 27.7435094 3.17059213 27.6209265 3.23022709 27.4983435 3.28986206 27.3972953 3.37103187 27.3161255 3.47208 27.2349557 3.57312812 27.1769773 3.68908499 27.1421902 3.82160713 27.1057466 3.95247274 27.0891814 4.08996446 27.0891814 4.23242576L27.0891814 6.57641106 26.0157521 6.57641106 26.0157521 2.28103729ZM33.5363834 3.47042347C33.327661 3.17887477 33.047708 3.03144389 32.6948678 3.03144389 32.5524065 3.03144389 32.4116017 3.06788748 32.27411 3.13911813 32.1366183 3.21034877 32.0687007 3.32630564 32.0687007 3.48864526 32.0687007 3.61951087 32.1250226 3.71558942 32.2393229 3.77522438 32.3519667 3.83485935 32.4960846 3.88621167 32.6683634 3.92762484 32.8406421 3.96903801 33.0278296 4.0121077 33.2282694 4.05683393 33.4287091 4.10156015 33.6142401 4.16947774 33.7881754 4.26224324 33.9604542 4.35500873 34.104572 4.48090476 34.2172158 4.64158786 34.3298596 4.80227095 34.3878381 5.022589 34.3878381 5.30419854 34.3878381 5.56096018 34.3331727 5.77630866 34.2221854 5.95355701 34.1111981 6.12914885 33.9687368 6.27161014 33.793145 6.37762785 33.6175532 6.48530209 33.41877 6.56315885 33.1984519 6.60954159 32.9781338 6.65758087 32.7578158 6.68077224 32.5358412 6.68077224 32.2012228 6.68077224 31.8947654 6.63273297 31.6148124 6.53831095 31.3348593 6.4422324 31.0847238 6.26995362 30.8627492 6.01981808L31.5783688 5.34892476C31.7158605 5.50463827 31.8632914 5.63053431 32.0206614 5.72992591 32.1780314 5.82766098 32.3701885 5.87735679 32.5971327 5.87735679 32.6749895 5.87735679 32.7545027 5.86907415 32.8389856 5.85085236 32.9218119 5.83263056 32.9996687 5.80281308 33.0708993 5.76139992 33.14213 5.71998675 33.2001084 5.66697789 33.2448346 5.60402988 33.2895609 5.54108186 33.3110957 5.46819469 33.3110957 5.38536835 33.3110957 5.23628095 33.2547738 5.12529366 33.1404735 5.05406301 33.0278296 4.98283236 32.8837118 4.92485392 32.711433 4.8801277 32.5391543 4.83540148 32.3519667 4.79398831 32.151527 4.75423167 31.9510873 4.71613156 31.7655563 4.65318354 31.591621 4.56704415 31.4193422 4.48090476 31.2752244 4.35997831 31.1625806 4.2042648 31.0499368 4.04855129 30.9919583 3.83485935 30.9919583 3.55987591 30.9919583 3.32133606 31.0416541 3.11427022 31.1393892 2.93867839 31.2371243 2.76308656 31.3679899 2.61896874 31.528673 2.50466839 31.6893561 2.39202458 31.8748871 2.30754171 32.0836094 2.25453286 32.2923318 2.201524 32.5043672 2.17336305 32.7180592 2.17336305 33.0046383 2.17336305 33.2879043 2.22305885 33.5678574 2.32079393 33.8478104 2.418529 34.0747545 2.58749473 34.2470333 2.82603458L33.5363834 3.47042347ZM0 10.2141437C0 10.0418649.0646045419 9.89112102.192157099 9.76191193.319709656 9.63435938.482049274 9.56975483.679175953 9.56975483.876302632 9.56975483 1.0419553 9.63104632 1.17613397 9.7536293 1.31031263 9.87621228 1.37823023 10.0302693 1.37823023 10.2141437 1.37823023 10.3980182 1.31031263 10.5520752 1.17613397 10.6746582 1.0419553 10.7972411.876302632 10.8585326.679175953 10.8585326.482049274 10.8585326.319709656 10.7939281.192157099 10.6663755.0646045419 10.5371664 0 10.3864225 0 10.2141437ZM.152400458 11.6718872 1.22582977 11.6718872 1.22582977 15.9656045.152400458 15.9656045.152400458 11.6718872ZM2.55602072 11.6718872 3.57644118 11.6718872 3.57644118 12.3610023 3.59466297 12.3610023C3.6957111 12.1456539 3.85142461 11.9601229 4.06014698 11.8010963 4.26886935 11.6437263 4.55213541 11.564213 4.90994518 11.564213 5.19652431 11.564213 5.43837721 11.6122523 5.63881694 11.7066743 5.83925667 11.8027528 6.00159629 11.9269923 6.12583579 12.0827059 6.25173182 12.2384194 6.34118427 12.4173243 6.39419312 12.6194205 6.44720198 12.8215168 6.47536293 13.0335522 6.47536293 13.2538702L6.47536293 15.963948 5.40193362 15.963948 5.40193362 13.7905849C5.40193362 13.671315 5.39530751 13.5387928 5.38371182 13.3930185 5.37211614 13.2472441 5.34064213 13.1097524 5.2892898 12.9821999 5.23793747 12.8546473 5.16008072 12.7469731 5.05240648 12.6608337 4.94473225 12.5746943 4.79895789 12.5316246 4.6134269 12.5316246 4.43452202 12.5316246 4.28377809 12.5614421 4.16119511 12.621077 4.03861213 12.680712 3.937564 12.7618818 3.85639419 12.8629299 3.77522438 12.9639781 3.71724595 13.0799349 3.68245889 13.2124571 3.6460153 13.3433227 3.62945003 13.4808144 3.62945003 13.6232757L3.62945003 15.967261 2.55602072 15.967261 2.55602072 11.6718872 2.55602072 11.6718872ZM9.89112102 12.8612734C9.68239865 12.5697247 9.40244564 12.4222938 9.04960545 12.4222938 8.90714415 12.4222938 8.76633938 12.4587374 8.62884766 12.5299681 8.49135594 12.6011987 8.42343835 12.7171556 8.42343835 12.8794952 8.42343835 13.0103608 8.47976026 13.1064394 8.5940606 13.1660743 8.70670442 13.2257093 8.85082224 13.2770616 9.02310102 13.3184748 9.1953798 13.359888 9.38256732 13.4029577 9.58300705 13.4476839 9.78344678 13.4924101 9.96897777 13.5603277 10.1429131 13.6530932 10.3151919 13.7458587 10.4593097 13.8717547 10.5719535 14.0324378 10.6845973 14.1931209 10.7425757 14.4134389 10.7425757 14.6950485 10.7425757 14.9518101 10.6879104 15.1671586 10.5769231 15.344407 10.4659358 15.5199988 10.3234745 15.6624601 10.1478827 15.7684778 9.97229083 15.876152 9.77350762 15.9540088 9.55318957 16.0003915 9.33287151 16.0484308 9.11255346 16.0716222 8.89057888 16.0716222 8.55596048 16.0716222 8.24950304 16.0235829 7.96955003 15.9291609 7.68959701 15.8330823 7.43946148 15.6608036 7.2174869 15.410668L7.93310644 14.7397747C8.07059816 14.8954882 8.21802903 15.0213843 8.37539907 15.1207759 8.53276911 15.2185109 8.72492621 15.2682067 8.95187037 15.2682067 9.02972712 15.2682067 9.10924041 15.2599241 9.19372327 15.2417023 9.27654961 15.2234805 9.35440636 15.193663 9.42563701 15.1522499 9.49686766 15.1108367 9.55484609 15.0578278 9.59957231 14.9948798 9.64429854 14.9319318 9.66583338 14.8590446 9.66583338 14.7762183 9.66583338 14.6271309 9.60951148 14.5161436 9.49521113 14.444913 9.38256732 14.3736823 9.23844949 14.3157039 9.06617071 14.2709777 8.89389193 14.2262514 8.70670442 14.1848383 8.50626468 14.1450816 8.30582495 14.1069815 8.12029396 14.0440335 7.94635865 13.9578941 7.77407987 13.8717547 7.62996205 13.7508283 7.51731823 13.5951148 7.40467442 13.4394012 7.34669598 13.2257093 7.34669598 12.9507259 7.34669598 12.712186 7.39639178 12.5051202 7.49412686 12.3295283 7.59186194 12.1539365 7.72272755 12.0098187 7.88341064 11.8955183 8.04409373 11.7828745 8.22962472 11.6983917 8.43834709 11.6453828 8.64706945 11.592374 8.85910487 11.564213 9.07279682 11.564213 9.35937594 11.564213 9.64264201 11.6139088 9.92259502 11.7116439 10.202548 11.809379 10.4294922 11.9783447 10.601771 12.2168845L9.89112102 12.8612734ZM11.1600205 12.5846335 11.1600205 11.6718872 11.9634359 11.6718872 11.9634359 10.4278357 13.0368652 10.4278357 13.0368652 11.6718872 14.2179688 11.6718872 14.2179688 12.5846335 13.0368652 12.5846335 13.0368652 14.4631348C13.0368652 14.6784832 13.0766219 14.8474489 13.1577917 14.973345 13.2389615 15.099241 13.3979881 15.1605325 13.6365279 15.1605325 13.7326065 15.1605325 13.8369677 15.1505933 13.9496115 15.1290585 14.0622553 15.1075236 14.1517077 15.0743931 14.2179688 15.0263538L14.2179688 15.9291609C14.105325 15.9821697 13.9661767 16.0202699 13.8021806 16.0401482 13.6381844 16.061683 13.4940666 16.0716222 13.3681706 16.0716222 13.0815915 16.0716222 12.8480212 16.0401482 12.6658033 15.9772002 12.4835853 15.9142522 12.341124 15.8198301 12.2367628 15.690621 12.1324017 15.5630685 12.061171 15.4023854 12.0214144 15.2118848 11.9833143 15.0213843 11.9634359 14.8010662 11.9634359 14.5492741L11.9634359 12.5813204 11.1600205 12.5813204 11.1600205 12.5846335ZM15.1191193 10.2141437C15.1191193 10.0418649 15.1837239 9.89112102 15.3112764 9.76191193 15.438829 9.63435938 15.6011686 9.56975483 15.7982953 9.56975483 15.995422 9.56975483 16.1610746 9.63104632 16.2952533 9.7536293 16.429432 9.87621228 16.4973496 10.0302693 16.4973496 10.2141437 16.4973496 10.3980182 16.429432 10.5520752 16.2952533 10.6746582 16.1610746 10.7972411 15.995422 10.8585326 15.7982953 10.8585326 15.6011686 10.8585326 15.438829 10.7939281 15.3112764 10.6663755 15.1837239 10.5371664 15.1191193 10.3864225 15.1191193 10.2141437ZM15.2715198 11.6718872 16.3449491 11.6718872 16.3449491 15.9656045 15.2715198 15.9656045 15.2715198 11.6718872 15.2715198 11.6718872ZM17.3239564 12.5846335 17.3239564 11.6718872 18.1273718 11.6718872 18.1273718 10.4278357 19.2008012 10.4278357 19.2008012 11.6718872 20.3819047 11.6718872 20.3819047 12.5846335 19.2008012 12.5846335 19.2008012 14.4631348C19.2008012 14.6784832 19.2405578 14.8474489 19.3217276 14.973345 19.4028974 15.099241 19.561924 15.1605325 19.8004638 15.1605325 19.8965424 15.1605325 20.0009036 15.1505933 20.1135474 15.1290585 20.2261912 15.1075236 20.3156436 15.0743931 20.3819047 15.0263538L20.3819047 15.9291609C20.2692609 15.9821697 20.1301126 16.0202699 19.9661165 16.0401482 19.8021204 16.061683 19.6580025 16.0716222 19.5321065 16.0716222 19.2455274 16.0716222 19.0119571 16.0401482 18.8297392 15.9772002 18.6475212 15.9142522 18.5050599 15.8198301 18.4006988 15.690621 18.2963376 15.5630685 18.2251069 15.4023854 18.1853503 15.2118848 18.1472502 15.0213843 18.1273718 14.8010662 18.1273718 14.5492741L18.1273718 12.5813204 17.3239564 12.5813204 17.3239564 12.5846335ZM25.4011807 15.9656045 24.3807602 15.9656045 24.3807602 15.2764894 24.3625384 15.2764894C24.2614903 15.4918378 24.1057768 15.6773688 23.8970544 15.8363954 23.688332 15.9937654 23.405066 16.0732787 23.0472562 16.0732787 22.7606771 16.0732787 22.5171676 16.026896 22.3183844 15.9341305 22.1179447 15.841365 21.9556051 15.7171255 21.8313656 15.5580989 21.7054696 15.4007289 21.6160171 15.2201675 21.5630083 15.0164147 21.5099994 14.8143184 21.4818384 14.602283 21.4818384 14.3819649L21.4818384 11.6718872 22.5552678 11.6718872 22.5552678 13.8452503C22.5552678 13.9645202 22.5618939 14.0970423 22.5734895 14.2428167 22.5850852 14.388591 22.6165592 14.5260828 22.6679116 14.6536353 22.7192639 14.7811879 22.7954641 14.8888621 22.8998253 14.9750015 23.0041865 15.0611409 23.1516174 15.1042106 23.3421179 15.1042106 23.5210228 15.1042106 23.6717668 15.0743931 23.7943497 15.0147581 23.9169327 14.9551232 24.0179808 14.8739534 24.0991507 14.7729052 24.1803205 14.6718571 24.2382989 14.5559002 24.273086 14.4233781 24.3095295 14.2925125 24.3260948 14.1550208 24.3260948 14.0125595L24.3260948 11.6685742 25.3995241 11.6685742 25.3995241 15.9656045 25.4011807 15.9656045ZM30.5198482 15.9656045 29.4994277 15.9656045 29.4994277 15.2764894 29.481206 15.2764894C29.3801578 15.4918378 29.2244443 15.6773688 29.0157219 15.8363954 28.8069996 15.9937654 28.5237335 16.0732787 28.1659237 16.0732787 27.8793446 16.0732787 27.6358352 16.026896 27.437052 15.9341305 27.2366123 15.841365 27.0742726 15.7171255 26.9500331 15.5580989 26.8241371 15.4007289 26.7346847 15.2201675 26.6816758 15.0164147 26.6286669 14.8143184 26.600506 14.602283 26.600506 14.3819649L26.600506 11.6718872 27.6739353 11.6718872 27.6739353 13.8452503C27.6739353 13.9645202 27.6805614 14.0970423 27.6921571 14.2428167 27.7037528 14.388591 27.7352268 14.5260828 27.7865791 14.6536353 27.8379314 14.7811879 27.9141317 14.8888621 28.0184929 14.9750015 28.122854 15.0611409 28.2702849 15.1042106 28.4607855 15.1042106 28.6396904 15.1042106 28.7904343 15.0743931 28.9130173 15.0147581 29.0356003 14.9551232 29.1366484 14.8739534 29.2178182 14.7729052 29.298988 14.6718571 29.3569664 14.5559002 29.3917535 14.4233781 29.4281971 14.2925125 29.4447624 14.1550208 29.4447624 14.0125595L29.4447624 11.6685742 30.5198482 11.6685742 30.5198482 15.9656045ZM31.4309379 12.5846335 31.4309379 11.6718872 32.2343534 11.6718872 32.2343534 10.4278357 33.3077827 10.4278357 33.3077827 11.6718872 34.4888862 11.6718872 34.4888862 12.5846335 33.3077827 12.5846335 33.3077827 14.4631348C33.3077827 14.6784832 33.3475393 14.8474489 33.4287091 14.973345 33.5098789 15.099241 33.6689055 15.1605325 33.9074453 15.1605325 34.0035239 15.1605325 34.1078851 15.1505933 34.2205289 15.1290585 34.3331727 15.1075236 34.4226251 15.0743931 34.4888862 15.0263538L34.4888862 15.9291609C34.3762424 15.9821697 34.2370942 16.0202699 34.073098 16.0401482 33.9091019 16.061683 33.764984 16.0716222 33.639088 16.0716222 33.3525089 16.0716222 33.1189386 16.0401482 32.9367207 15.9772002 32.7545027 15.9142522 32.6120414 15.8198301 32.5076803 15.690621 32.4033191 15.5630685 32.3320884 15.4023854 32.2923318 15.2118848 32.2542317 15.0213843 32.2343534 14.8010662 32.2343534 14.5492741L32.2343534 12.5813204 31.4309379 12.5813204 31.4309379 12.5846335Z" transform="translate(20.511 6.104)"/></g></g></svg>