<svg xmlns="http://www.w3.org/2000/svg" width="132" height="20" viewBox="0 0 132 20" xmlns:xlink="http://www.w3.org/1999/xlink">
  <defs>
    <polygon id="a" points="131.304 0 0 0 0 20 131.304 20 131.304 0"/>
  </defs>
  <g fill="none" fill-rule="evenodd">
    <mask id="b" fill="white">
      <use xlink:href="#a"/>
    </mask>
    <path fill="#FFFFFF" d="M113.711836,17.4271006 C113.010238,17.4380376 112.502249,17.6318794 112.479677,18.4509948 C112.45664,19.2929152 112.891095,19.60753 113.691358,19.6126494 C114.456018,19.6175362 114.977038,19.3967008 114.983554,18.7956283 C114.991233,17.6672503 114.482081,17.415 113.711836,17.4271006 Z M89.119157,1.77920356 C89.1228803,0.484442704 88.5948787,0.0146148521 87.1230365,0.00158347043 C85.5152962,-0.0126114275 84.9209745,0.473971058 84.902591,1.82062474 C84.8853711,3.09560581 85.5441513,3.70040155 86.9650317,3.71320023 C88.427333,3.72669702 89.1156665,3.1086372 89.119157,1.77920356 Z M33.174495,3.71180401 C34.6386579,3.74182273 35.376557,3.12050506 35.4082045,1.83063098 C35.4393866,0.54727258 34.8771778,0.0248537949 33.440241,0.00135076718 C31.7315079,-0.026340919 31.2351539,0.365531345 31.2216571,1.75197728 C31.2074623,3.1735614 31.7140552,3.68178529 33.174495,3.71180401 Z M105.231465,1.89927843 C105.247289,3.19659902 105.801353,3.70086696 107.224793,3.71296752 C108.706642,3.7255335 109.422201,3.11515289 109.445704,1.81853041 C109.469207,0.516555751 108.866974,-0.00260518798 107.338352,0.00135076718 C105.701757,0.00600483208 105.213547,0.445348559 105.231465,1.89927843 Z M128.098889,11.6546639 C128.098889,13.6647545 128.054676,15.6760086 128.11355,17.6840049 C128.157298,19.1814503 129.395739,19.9877671 130.787532,19.5367882 C131.068171,19.4460339 131.290867,19.3157201 131.303666,18.9971494 C131.315534,18.6946351 131.172654,18.4291207 130.866418,18.4056177 C129.623788,18.3106748 129.694296,17.4340817 129.696158,16.5544634 C129.705001,12.9985251 129.701278,9.44235412 129.691504,5.88618313 C129.689642,5.28511065 129.629838,4.65029619 128.813053,4.65867351 C127.991614,4.66681812 128.102613,5.34212294 128.097493,5.85686252 C128.078644,7.78923027 128.090047,9.72206342 128.090047,11.6546639 L128.098889,11.6546639 Z M117.590285,14.4340714 C117.590285,15.7891024 117.586562,17.1441334 117.592147,18.4991644 C117.594241,19.0301932 117.641247,19.5586623 118.371933,19.520499 C119.02187,19.486757 119.045838,18.990401 119.0477,18.5089379 C119.053285,16.9602979 119.050725,15.4116578 119.05375,13.8630177 C119.057008,12.1112276 119.73487,11.2409175 121.414748,10.8271711 C122.871232,10.4683427 123.57888,10.9614409 123.621464,12.474012 C123.671728,14.2534937 123.633565,16.0355352 123.648923,17.8164131 C123.652414,18.199908 123.676382,18.5941073 123.769463,18.9636401 C123.891864,19.450688 124.272332,19.6240519 124.755422,19.5586623 C125.255034,19.4907129 125.326009,19.1544567 125.319493,18.7137168 C125.289009,16.7010664 125.307392,14.6874853 125.263412,12.6750676 C125.198953,9.73858535 123.375265,8.57623264 120.660327,9.71740935 C120.34106,9.85167912 120.032264,10.0187601 119.736964,10.2002686 C119.40164,10.4064437 119.128448,10.57399 118.986965,10.0017727 C118.878991,9.56568684 118.545528,9.36114068 118.103859,9.44793899 C117.598663,9.54707058 117.601921,9.98478538 117.598663,10.3687457 C117.586795,11.7237767 117.594241,13.0788077 117.594241,14.4340714 L117.590285,14.4340714 Z M109.678639,8.39798195 C109.640011,6.82676964 108.764585,5.74563037 107.428873,5.60368139 C106.741238,5.53061257 106.039175,5.58343621 105.343861,5.59390785 C104.743489,5.60298328 104.393737,5.93249107 104.364882,6.51913595 C104.3337,7.15441581 104.104954,8.01704674 104.88916,8.24556133 C106.046854,8.58298103 106.11713,9.41605865 106.127835,10.312897 C106.156224,12.7099731 106.141331,15.1077473 106.14296,17.5052889 C106.144124,19.6712907 106.150407,19.6771082 108.351538,19.6086935 C108.428795,19.6061337 108.506285,19.6005489 108.583542,19.6038067 C109.358674,19.6361525 109.707262,19.2798838 109.69679,18.4907871 C109.673985,16.7894937 109.689809,15.0877348 109.688878,13.3864414 C109.687947,11.723544 109.719595,10.0599485 109.678639,8.39798195 Z M89.306017,7.88231156 C89.0393401,6.29108677 88.2188318,5.62509009 86.6064374,5.56714698 C86.1426617,5.55062505 85.6774898,5.57133564 85.2132486,5.57948025 C84.611015,5.5904173 84.0972083,5.77355476 84.0988372,6.47445693 C84.1006989,7.15813906 83.7455951,8.05939873 84.7683218,8.32793828 C85.6107042,8.54923906 85.7205397,9.10982118 85.7193762,9.81607553 C85.7147221,12.2932016 85.7191435,14.7700949 85.7198416,17.2469882 C85.720307,19.7404035 85.7256591,19.7222527 88.261649,19.6180016 C89.0896038,19.5842596 89.4558773,19.2817454 89.4409843,18.437498 C89.4125946,16.8122986 89.4328397,15.1866337 89.4328397,13.1186 C89.3395261,11.6688588 89.6213286,9.7634846 89.306017,7.88231156 Z M35.6602211,13.5921511 C35.6602211,11.9643919 35.6606865,10.3368654 35.6592903,8.70910619 C35.6590576,8.59321998 35.6488187,8.47686835 35.6360201,8.36144754 C35.4189088,6.37788508 34.5751302,5.58855568 32.6341602,5.56319102 C32.2083149,5.55760615 31.7817716,5.57366267 31.3559264,5.58692676 C30.7862711,5.6046122 30.3432059,5.82335325 30.3390172,6.45607337 C30.3345959,7.11392545 29.9943851,8.00029211 30.8863331,8.27371842 C31.8792739,8.57809427 31.9632794,9.24362555 31.9616505,10.0604139 C31.956531,12.5019364 31.9607197,14.9434588 31.9611851,17.3849813 C31.9618832,19.6933975 31.9618832,19.6933975 34.2970509,19.6070646 C34.3359122,19.6056683 34.3747735,19.6024105 34.4134021,19.6045048 C35.2958093,19.6566303 35.6841895,19.2438148 35.6713908,18.3588444 C35.6478879,16.7701793 35.6646425,15.1810488 35.6646425,13.5921511 L35.6602211,13.5921511 Z M78.9817133,17.733338 C78.9835749,15.6441283 78.9731033,13.5546859 78.9859019,11.4657088 C78.9954427,9.98548349 79.9332331,8.98765198 81.3801761,8.87828145 C83.1124121,8.74680412 83.6003889,8.22485074 83.7090609,6.49423671 C83.7453624,5.91783077 83.55571,5.63835417 82.9872183,5.53131068 C81.4001885,5.23228701 80.0581942,5.633002 79.077354,6.93590747 C78.6438295,7.511848 78.3920456,7.5407032 77.9990114,6.91868743 C77.6227318,6.32273442 77.0877491,5.87245364 76.3947616,5.64137931 C75.8225466,5.45009725 75.3175826,5.48686436 74.971787,6.04442133 C74.6532175,6.55753199 74.1612848,7.05900748 74.6811418,7.71336901 C75.198439,8.36447269 75.2624322,9.12494689 75.2619668,9.90938953 C75.2608033,12.5405651 75.259407,15.171508 75.2649919,17.8022182 C75.2689478,19.5365555 75.3455069,19.605901 77.1200948,19.6105551 C78.9614682,19.6149765 78.9798517,19.5977564 78.9817133,17.733338 Z M2.27139461,0.463964818 C0.922884685,0.594511338 0.219425582,1.25980992 0.118898181,2.60599819 C-0.0421318224,4.75338373 0.90729363,6.35950153 2.72772385,7.42807483 C3.40768002,7.82716089 4.04272464,8.21647342 4.47136231,8.89992285 C4.80831527,9.43723465 5.22764484,9.58779365 5.62021365,8.95088486 C6.01115354,8.31723393 6.58709177,8.01821026 7.27635604,7.7845762 C8.74494036,7.28705666 9.88262198,6.32599226 10.3410455,4.82738336 C11.114548,2.29999342 10.4755475,0.448606404 7.59515821,0.42463797 C6.78605226,0.417656872 5.97764441,0.29199712 5.22275809,0.225443992 C4.1986352,0.307355534 3.23338599,0.37088352 2.27139461,0.463964818 Z M5.50316438,19.5791402 C6.47236953,19.5791402 7.44599603,19.6366179 8.40984902,19.5663415 C10.0892616,19.4439396 10.8222739,18.5773527 10.7843435,16.8886253 C10.7357087,14.7151769 9.3315829,12.8970665 7.0918231,12.1822021 C6.52240053,12.0004609 6.00021653,11.8191851 5.64464739,11.3007222 C5.28884555,10.781794 4.902327,10.7815613 4.56560675,11.3246907 C4.21725138,11.8864363 3.68459578,12.1568375 3.09283379,12.3921004 C1.80715349,12.9033495 0.810489466,13.7983262 0.35788346,15.095414 C-0.48682595,17.5150624 0.0528107228,19.6484857 3.17660662,19.6061337 C3.95197074,19.5954294 4.72780026,19.6045048 5.50316438,19.6045048 L5.50316438,19.5791402 Z M51.7055113,13.0853234 C51.7055113,14.3247009 51.6761908,15.5647765 51.7124923,16.8032232 C51.7634541,18.5466359 52.7449925,19.5360901 54.4665242,19.5982218 C55.2786553,19.6277751 56.0938115,19.6126494 56.9057099,19.5751842 C58.3449737,19.5090965 58.7235804,18.8945272 58.2874963,17.5259994 C58.050838,16.7822799 57.502126,16.7871666 56.9073388,16.7676196 C55.2451462,16.7133997 55.0692232,16.5314258 55.0585189,14.8513083 C55.0496762,13.4567178 55.0564246,12.06236 55.0564246,10.6682348 C55.0561919,8.32630935 55.0552611,8.28698251 57.4223091,8.21786964 C58.4043128,8.18924714 58.5562675,7.69289112 58.5609215,6.88471275 C58.566041,6.05023892 58.3440429,5.59856192 57.3915924,5.57319726 C55.0648019,5.5110655 55.0659654,5.47592731 55.0564246,3.0802474 C55.0503744,1.44923036 54.4970082,1.03967265 52.9132363,1.47552582 C52.1851107,1.67588332 51.8009192,2.16130229 51.7373915,2.88780182 C51.6903856,3.42650983 51.6831718,3.97173353 51.7015553,4.51253587 C51.7252909,5.20785317 51.5156262,5.66115909 50.7244383,5.58925379 C49.7680318,5.50199007 49.4031545,5.95832113 49.4022237,6.88331653 C49.4010602,7.79085919 49.7224221,8.28977494 50.696514,8.20483826 C51.4572179,8.13851784 51.7208696,8.52271089 51.7036496,9.25083935 C51.6738637,10.5283802 51.6955051,11.8070845 51.6955051,13.0853234 L51.7055113,13.0853234 Z M91.9986155,13.8653447 C92.3029901,16.2289116 93.0532224,18.3970077 95.4109623,19.4323044 C97.804771,20.4831923 100.103637,20.0133644 102.221694,18.5312775 C103.042667,17.9565004 102.997523,17.3237803 102.495817,16.547715 C101.994809,15.7735113 101.449355,15.780027 100.741474,16.2279807 C100.184152,16.5802935 99.5684218,16.8344054 98.9082454,16.9314426 C97.9232165,17.0764168 97.0473249,16.8674493 96.4325254,16.0206421 C95.3506924,14.5297125 95.2776238,10.5344304 96.2954638,8.97019923 C96.727592,8.30629688 97.3237753,7.91023595 98.1454472,8.0070405 C98.9224402,8.09872558 99.4045994,8.57995589 99.6196164,9.30761894 C99.7503951,9.7495224 99.8164825,10.2114383 99.8925762,10.6677694 C99.9451669,10.9828496 100.006135,11.2537162 100.352629,11.4033444 C101.803993,12.0311777 103.190433,11.1420186 103.178333,9.56359251 C103.171352,8.64162225 102.868606,7.82111061 102.270328,7.10973679 C100.740311,5.29069552 97.9364805,4.68031491 95.6946264,5.70304567 C92.7253448,7.05807667 91.9502134,9.6131583 91.9909363,12.5887347 C91.9909363,13.0145816 91.9448613,13.4464789 91.9986155,13.8653447 Z M41.6948903,5.43590235 C39.743216,5.91410752 38.5005856,7.26285553 38.2823108,9.09353195 C38.0884698,10.7175679 38.9313176,12.1915103 40.6868239,13.108361 C41.5759794,13.5730694 42.5384362,13.8960615 43.4627298,14.2946822 C44.2613641,14.6393157 44.9569114,15.1298541 44.6962848,16.1214027 C44.4526454,17.0477943 43.5765212,17.1504164 42.8062766,17.1294731 C41.7593488,17.1008506 40.7194022,16.8839712 39.7911526,16.3589927 C38.9280597,15.871014 38.5313023,16.2989552 38.1892299,17.0347629 C37.8490191,17.7668473 37.6326059,18.3765298 38.5950627,18.8538042 C40.7654772,19.9302894 42.9880171,20.2898159 45.3494802,19.6089262 C47.6155353,18.9554955 48.8207006,17.1832276 48.4918923,14.864107 C48.2540705,13.1870147 47.0856722,12.2385163 45.6838734,11.5499474 C44.8175227,11.1245659 43.879965,10.8460201 42.9961616,10.4522862 C42.3801986,10.1779291 41.7621413,9.78861655 41.9706425,8.98113629 C42.1602949,8.24742295 42.7976666,7.9998267 43.507874,7.97888341 C44.5350221,7.94886469 45.5105102,8.23346076 46.4441119,8.60555325 C47.3951662,8.98439413 47.7137357,8.41334037 47.9880917,7.72221173 C48.261517,7.03364283 48.4313897,6.38230645 47.4875491,6.00835233 C46.2116423,5.50268818 44.8931509,5.23787189 43.3868688,5.1385076 C42.9130869,5.21972103 42.2945642,5.2888339 41.6948903,5.43590235 Z M68.2048036,15.7057947 C67.8103732,16.6042619 67.1494986,17.1569321 66.1516711,17.1518126 C65.2034091,17.1469259 64.4850571,16.6377712 64.1902232,15.7621088 C63.4793177,13.6500942 63.4239345,11.49852 64.1946446,9.38790156 C64.5290378,8.47244699 65.2881128,7.96910987 66.281519,8.00099022 C67.2865603,8.03310327 67.9106679,8.65558445 68.2636773,9.5486995 C68.6546172,10.5376883 68.7530503,11.5778718 68.6985979,12.635508 C68.740717,13.6908173 68.6362337,14.7240197 68.2048036,15.7057947 Z M60.1225867,14.3784553 C60.396012,17.1341272 62.2843913,19.2829089 64.8182868,19.7683279 C67.7992035,20.3396144 70.3033131,19.27267 71.5405913,16.6589471 C72.835347,13.9244513 72.8113787,11.0736039 71.4733403,8.35307023 C70.3479919,6.06536463 68.3099851,5.08172801 65.8277494,5.21832482 C63.1707544,5.36469516 61.3607958,6.76766302 60.4574454,9.31157489 C60.0851217,10.3601357 60.0562666,11.4345266 60.1137441,12.5212508 C60.1137441,13.1404741 60.0616187,13.7652823 60.1225867,14.3784553 Z M27.7969771,10.0976465 C27.7972098,12.7716394 27.7602102,15.4460978 27.8153606,18.11916 C27.8377,19.2037898 27.4998163,19.7443595 26.3646944,19.6114859 C26.288368,19.6024105 26.2099473,19.6105551 26.1324575,19.6110205 C24.0602433,19.6235865 24.0588471,19.6235865 24.0586144,17.5948796 C24.0586144,15.8896302 24.0246399,14.18345 24.0783941,12.4798296 C24.1091108,11.5041049 23.7204979,11.178553 22.7750284,11.2167164 C21.3823051,11.2725651 19.983066,11.2832695 18.5912735,11.2143893 C17.5431822,11.1622638 17.2434617,11.6006767 17.2713859,12.582219 C17.323744,14.4408198 17.2567257,16.3026785 17.2990775,18.1617447 C17.3223477,19.1830792 16.967244,19.6261462 15.8889015,19.6284733 C13.5476835,19.6331273 13.5474508,19.675712 13.5474508,17.2872459 C13.5474508,12.1331017 13.5439602,6.97919027 13.5502432,1.8250461 C13.5521048,0.479090529 13.8292533,0.24824891 15.3390259,0.24894702 C16.9819043,0.24964513 17.2746438,0.473505651 17.28465,1.80852417 C17.2974486,3.51330814 17.3172283,5.21925563 17.2746438,6.92334149 C17.2520716,7.83228037 17.6099678,8.16737304 18.5093623,8.14014676 C20.0191349,8.09453692 21.5330962,8.08639231 23.0421707,8.14410271 C23.9825208,8.18040442 24.2564114,7.78736864 24.2347701,6.90775037 C24.1921855,5.16503577 24.2121979,3.42045954 24.2270909,1.67658143 C24.2375625,0.460008863 24.4944659,0.255462711 25.9062708,0.2475508 C27.4837598,0.23894078 27.7872036,0.461637786 27.7925558,1.72731073 C27.804889,4.51718994 27.7965117,7.30753455 27.7969771,10.0976465 Z" mask="url(#b)"/>
  </g>
</svg>
