<svg xmlns="http://www.w3.org/2000/svg" width="189" height="30" viewBox="0 0 189 30">
  <g fill="#FFFFFF" fill-rule="evenodd">
    <path d="M18.0792484 19.10328C17.7350727 19.0664276 17.4246397 19.3172485 17.3883828 19.662549 17.1365695 22.0518641 15.8614256 26.3904496 14.8895031 28.6733098 14.7535398 28.9927408 14.9022062 29.3619258 15.2216373 29.497823 15.3019582 29.532095 15.3853887 29.5482386 15.4675621 29.5482386 15.7119652 29.5482386 15.9443269 29.4047989 16.0461505 29.165755 17.0549254 26.7962885 18.3675832 22.3648774 18.6384512 19.7942117 18.6748404 19.4489774 18.4244827 19.1397353 18.0792484 19.10328M20.7656979 14.0275153C20.6352922 13.9102098 20.4620796 13.8529795 20.2872791 13.8688584 20.1126771 13.8851343 19.9527631 13.9733947 19.8461758 14.1126661L17.8560171 16.7121123 15.60948 14.8531533C14.9460717 14.1759171 13.9512571 13.8063351 12.9949488 13.887847 12.1574016 13.9594344 11.4533036 14.3636193 11.0123326 15.0260351 10.8199992 15.3149654 10.8983352 15.7052561 11.1873316 15.8975234 11.4762619 16.0899231 11.8664865 16.0117194 12.05882 15.7225245 12.3464932 15.2905515 12.7848838 15.167556 13.1019992 15.1404295 13.6823739 15.0914033 14.3106501 15.3223755 14.7118576 15.7315887 14.8414032 15.9043381 14.9281418 16.0972671 14.9511001 16.2647898 15.1658625 17.8314442 14.7663091 21.1695251 11.643123 28.1757701 11.5867528 28.3022722 11.5430196 28.4003908 11.5141728 28.4668838 11.3761585 28.7854547 11.5224431 29.155566 11.8410141 29.2935803 11.9223936 29.3288448 12.0072135 29.3456499 12.0905778 29.3455176 12.3335254 29.3455176 12.5648946 29.2038644 12.6676444 28.9667391 12.6953002 28.9030249 12.7372471 28.8088099 12.7913016 28.6876008 15.0995019 23.5096156 16.2609129 19.593608 16.2553553 17.0193695L17.5574933 18.0968869C17.6891561 18.2057237 17.8593914 18.2559408 18.0290974 18.2370846 18.1988696 18.2178314 18.3534906 18.130365 18.4572991 17.9946663L20.2412964 15.6645002C20.3970422 16.293835 20.4950945 17.3635452 20.3654166 19.0385072 20.1694442 21.5692109 19.5067637 24.6783707 18.4994444 27.7932865 18.3925925 28.1235682 18.5738107 28.4778667 18.9040924 28.5847848 18.9683359 28.6055597 19.0335056 28.6154179 19.0976168 28.6154179 19.3627948 28.6154179 19.6095136 28.4461088 19.6955245 28.1800045 20.7324183 24.9739833 21.4154106 21.7619414 21.6186608 19.1355671 21.8783474 15.7817396 21.298105 14.5066619 20.7656979 14.0275153M13.5024789 1.53642489C13.5573274 1.53384456 19.0677776 1.32503669 23.2436042 5.12314331 23.3640194 5.23270789 23.5153984 5.2867624 23.6663144 5.2867624 23.8372113 5.2867624 24.0075128 5.21749059 24.1315669 5.08113032 24.3651194 4.8242887 24.3462632 4.42678627 24.0894878 4.19316758 21.7051348 2.02450335 18.9440543 1.07639919 17.0477137.662885508 14.9944363.215165976 13.5068457.277821568 13.4443224.280666543 13.0975664.296677792 12.8294772.590768722 12.8454884.937657078 12.861632 1.28434695 13.1560537 1.55117906 13.5024789 1.53642489M28.565029 14.7678702C28.2086795 12.5235165 26.9881194 10.0588426 25.2164283 8.00576371 23.7788563 6.3397998 21.2888423 4.14427372 17.5907068 3.14628327 17.2555953 3.0561042 16.9106256 3.25432612 16.8201157 3.58943761 16.729672 3.92448293 16.9280263 4.26951875 17.2631378 4.35996246 22.9473299 5.89399897 26.688934 10.9688373 27.3234956 14.9650336 27.3726541 15.2744079 27.639817 15.4949927 27.9435014 15.4949927 27.9762517 15.4949927 28.0094651 15.4925447 28.042877 15.4872517 28.3856633 15.4326679 28.6194805 15.1106565 28.565029 14.7678702M4.56198237 6.13264599C4.69126328 6.13251366 4.82173512 6.09281635 4.93388003 6.01037826 8.94496273 3.0601401 12.3087146 3.20933583 15.346353 3.81015467 15.6872867 3.87744162 16.0175684 3.65593061 16.0848553 3.31545998 16.1522084 2.9749232 15.9307636 2.64424458 15.5902268 2.57695763 14.1942708 2.30079666 12.3251228 2.0252973 10.2457775 2.34618392 8.15763268 2.66859226 6.1764721 3.5359124 4.18909227 4.9976998 3.9094247 5.20339804 3.84948175 5.59673226 4.05511384 5.87639983 4.17830783 6.04385633 4.36885494 6.13264599 4.56198237 6.13264599M1.20808869 14.5032215C2.59067995 11.2166809 4.55199188 8.78588208 7.03730834 7.27811196 9.57568688 5.73812085 11.9519019 5.60996469 13.1429536 5.67003996 14.3259336 5.73011523 16.8478377 6.18795758 18.5783759 7.16087256 18.8809356 7.33090939 19.2642132 7.22352816 19.43425 6.9209023 19.6044191 6.61840878 19.4969717 6.23513122 19.1943459 6.06509439 17.2626746 4.97904206 14.5551855 4.48295797 13.2066678 4.4144801 11.8719118 4.34719316 9.21093473 4.48904489 6.38534613 6.2033072 3.66859433 7.85147349 1.53691477 10.4798326.0493241123 14.0157385-.0852497799 14.3356988.065004551 14.704156.385031059 14.8387961.464624172 14.8722742.547194584 14.8881531.628441751 14.8881531.87383731 14.8881531 1.10699286 14.7435225 1.20808869 14.5032215M21.3898058 7.33335739C21.1068963 7.1322905 20.7144222 7.19858501 20.5133553 7.48162685 20.3122884 7.76460254 20.3786491 8.15694432 20.6616248 8.35814353 22.4518413 9.6303101 23.8893471 11.7245419 24.7093613 14.2551133 25.6012276 17.0075265 25.6824086 19.9845603 24.9441048 22.8647327 24.8578954 23.2011013 25.0606164 23.5434906 25.3968526 23.6297 25.4492531 23.6431309 25.5017197 23.6494825 25.5533924 23.6494825 25.8335231 23.6494825 26.0890414 23.4607879 26.1617537 23.1768859 26.9593389 20.0658737 26.8706154 16.8468185 25.9052429 13.8676675 25.0024598 11.0816439 23.3988207 8.76107126 21.3898058 7.33335739M23.8874284 15.0991443C23.7450474 14.5521815 23.5378936 13.9945666 23.3375545 13.4553447 23.3335186 13.4446265 23.3292842 13.4339743 23.324719 13.4235207 22.9597022 12.5843857 22.6289574 11.9214405 22.108658 11.2103293 22.1048206 11.2050364 22.1000569 11.1988171 22.0960872 11.1936565 21.8877424 10.9268244 21.6723184 10.650928 21.3856376 10.3521396 20.8427768 9.7584001 20.1657392 9.19535987 19.3160843 8.63119489 19.3108575 8.62768829 19.3054984 8.62431402 19.3001392 8.62093975 18.0280388 7.83050008 16.6844171 7.40520953 15.4220425 7.06341566 15.417345 7.06215858 15.4125813 7.06096766 15.4078838 7.0598429 12.7840899 6.41436459 9.90801955 7.01730061 6.85919973 8.85204427 3.90982167 10.6267788 2.19939676 15.0579253.950519287 18.2934548.875292878 18.4884348.802183659 18.6778571.731125469 18.8605971.605284985 19.184064.765463645 19.548353 1.08899675 19.6741935 1.4122652 19.800034 1.7767527 19.6399215 1.90265935 19.3163884 1.97411451 19.1325898 2.0476207 18.9422412 2.12331025 18.7461365 3.23992951 15.8533271 4.92732997 11.4817266 7.50739069 9.92909855 10.2582822 8.27372058 12.8129366 7.71848749 15.1005605 8.27881507 16.2656766 8.59447487 17.4988736 8.98344238 18.6287915 9.68383531 19.4011027 10.1973862 19.9840578 10.6810318 20.4624766 11.2055657 20.4662478 11.2096677 20.4700852 11.2137036 20.4738565 11.2176733 20.7160101 11.4692881 20.9024551 11.7076043 21.0998169 11.9603439 21.5470072 12.5732704 21.8303798 13.1408097 22.1651605 13.9092835 22.3596773 14.4328911 22.5431451 14.928115 22.6681916 15.4054091 22.9552032 16.6932561 23.0621213 17.9549029 23.0047587 19.374545 22.9907323 19.7213671 23.2606079 20.0139363 23.6074301 20.0280289 23.6160973 20.0282274 23.6246322 20.028492 23.6332333 20.028492 23.9686756 20.028492 24.2471523 19.7635125 24.2608478 19.4252914 24.322908 17.8894685 24.2059332 16.5215652 23.8925891 15.1203824 23.8910012 15.1132369 23.889281 15.1061575 23.8874284 15.0991443M23.5056064 20.9011713C23.1628863 20.8519466 22.8432568 21.0897997 22.7936351 21.4333138 22.5299788 23.2575377 22.2003588 24.6308 21.6915054 26.025102 21.5724796 26.3512816 21.7403331 26.712064 22.0664465 26.8310898 22.1375709 26.8570254 22.2102831 26.8693315 22.2818706 26.8693315 22.5383152 26.8693315 22.7792779 26.7110054 22.872302 26.4560825 23.4125162 24.9761005 23.7610587 23.527744 24.0378151 21.6130765 24.0874367 21.2695624 23.8491867 20.9507929 23.5056064 20.9011713M8.85213718 12.0057312C9.09144582 11.7542487 9.08158765 11.3563493 8.83010517 11.1170406 8.57862269 10.877732 8.18072329 10.8877887 7.94148081 11.1391388 5.82402612 13.364504 4.70337096 16.1639586 3.28452282 19.7082009 2.95450583 20.5325156 2.61337358 21.3846846 2.23777083 22.2850196 2.10412321 22.605377 2.2555023 22.9735034 2.57592578 23.107151 2.6549896 23.1400998 2.73696455 23.155714 2.81761626 23.155714 3.06367344 23.155714 3.29729213 23.0103557 3.39799098 22.7689299 3.77703416 21.8602584 4.11995278 21.0037889 4.45149151 20.1754382 5.82025487 16.756441 6.90134504 14.0559651 8.85213718 12.0057312M10.3323838 11.0789312C11.1730406 10.656221 12.0598124 10.4352393 13.2073956 10.3621301 14.3446574 10.289484 15.4137061 10.5276679 16.3864226 11.0693377 17.0927701 11.4627381 17.8824159 12.1154281 18.3982824 12.7323243 18.5226012 12.8810569 18.7010406 12.9576727 18.8808033 12.9576727 19.023052 12.9576727 19.1660946 12.9097713 19.2836648 12.8113881 19.5499677 12.5886201 19.5853644 12.1923085 19.3626625 11.9260057 18.7467587 11.1894221 17.8407337 10.4402676 16.9980259 9.97111154 15.8111424 9.31008511 14.5087397 9.0191038 13.1275378 9.10762881 11.8209008 9.19086084 10.7533077 9.46027327 9.76782187 9.95569575 9.45765353 10.1115739 9.33260699 10.4894261 9.48848511 10.7995283 9.64449555 11.1096966 10.0222817 11.2347432 10.3323838 11.0789312M9.35556527 15.9048674C9.83669671 14.8548073 10.2191803 14.1174959 11.1175967 13.4601084 11.1208386 13.4577927 11.1240144 13.455477 11.1271902 13.453029 11.9282158 12.8433445 12.9611399 12.5876938 13.9611152 12.7522391 15.0909669 12.9378902 16.099808 13.6450317 16.8786031 14.7971801 17.07312 15.084721 17.4636092 15.1602782 17.7513486 14.9659598 18.0389556 14.7715753 18.1144466 14.3808214 17.9201283 14.0931482 16.6855419 12.266741 15.196628 11.681338 14.1649609 11.5116981 12.8272938 11.2921058 11.4447687 11.6335689 10.3704933 12.4492163 9.23462079 13.2818013 8.74052157 14.2293762 8.21082708 15.3855604 7.77680312 16.3515945 7.40821357 17.344689 7.01792282 18.39594 6.32877746 20.2525834 5.54773282 22.3568718 4.22971585 24.6906107 4.05895124 24.9929057 4.16560469 25.3763156 4.46783357 25.547014 4.56555512 25.6021933 4.67167928 25.6283935 4.77641402 25.6283935 4.99567551 25.6282612 5.20871776 25.5134036 5.32423694 25.3088302 6.69141241 22.8879557 7.49104863 20.7339133 8.19646989 18.8334706 8.57921815 17.802399 8.94072835 16.8284254 9.35556527 15.9048674M13.3767708 16.6033417C13.0357047 16.5398921 12.7074079 16.7651082 12.6439584 17.1063728 12.1235266 19.9062905 10.8507646 23.4932735 9.8624338 25.5893578 9.71436282 25.9033636 9.84893672 26.2779739 10.1628763 26.4259787 10.2494826 26.4668008 10.3406541 26.4861863 10.4305024 26.4861863 10.6662382 26.4861863 10.8922483 26.3529357 10.999431 26.1255362 11.9907391 24.0231665 13.314843 20.3758435 13.8798019 17.3361541 13.9432515 16.9948895 13.7180354 16.6667912 13.3767708 16.6033417M10.0111664 28.2088512C9.89730128 28.4187177 9.68114941 28.5378758 9.4580505 28.5378758 9.35682236 28.5378758 9.25413864 28.5133296 9.15893125 28.4615908L6.68777349 27.1210787C6.3832951 26.9558055 6.26989311 26.5753729 6.43417382 26.2703652 7.27714627 24.7057618 8.99875259 20.8491017 10.016724 17.5405952 10.1188784 17.2087257 10.4706628 17.0226776 10.8023339 17.1247659 11.1340711 17.2268541 11.3203176 17.5785723 11.2182294 17.9103096 10.2808435 20.9570122 8.7572606 24.4640713 7.82940206 26.3101949L9.75836068 27.3566161C10.0635007 27.5221539 10.1767042 27.9037774 10.0111664 28.2088512M186.31223 9.48806977L188.99763 19.5950995 186.990862 19.5950995 185.532277 14.2382418 183.063462 19.5950995 182.601415 19.5950995 180.132351 14.2382418 178.674015 19.5950995 176.666998 19.5950995 179.352647 9.48806977 180.016839 9.48806977 182.83219 15.7110167 185.648038 9.48806977 186.31223 9.48806977zM174.84495 15.581066C174.84495 18.1653926 173.357736 19.7969961 170.787599 19.7969961 168.217463 19.7969961 166.730498 18.1653926 166.730498 15.581066L166.730498 9.48806977 168.780583 9.48806977 168.780583 15.7543336C168.780583 17.5447658 169.762433 18.0645687 170.787599 18.0645687 171.812766 18.0645687 172.794616 17.5447658 172.794616 15.7543336L172.794616 9.48806977 174.84495 9.48806977 174.84495 15.581066zM157.801489 9.48806977L164.226581 9.48806977 164.226581 11.2204972 159.851823 11.2204972 159.851823 13.5307323 164.067753 13.5307323 164.067753 15.2634087 159.851823 15.2634087 159.851823 17.8624232 164.284337 17.8624232 164.284337 19.5950995 157.801489 19.5950995 157.801489 9.48806977zM149.244906 16.4474042C149.923537 17.3137423 150.760749 18.0356908 151.930554 18.0356908 152.724697 18.0356908 153.287817 17.5736438 153.287817 16.7648125 153.287817 15.8554064 152.623625 15.5233101 151.497385 15.0035072 149.952415 14.2959977 149.057199 13.4296595 149.057199 12.0579574 149.057199 10.311091 150.501096 9.2859242 152.089134 9.2859242 153.38889 9.2859242 154.168594 9.66108846 154.601515 10.0511896L154.673958 12.2023471 154.486252 12.2023471C153.792932 11.4517696 153.013477 10.9605957 152.1327 10.9605957 151.396312 10.9605957 150.890948 11.2782531 150.890948 11.9715725 150.890948 12.6210772 151.511824 12.9820515 152.941033 13.6462441 154.385179 14.3104367 155.338151 15.119019 155.338151 16.7217446 155.338151 18.5408058 154.009766 19.7969961 152.031627 19.7969961 150.659925 19.7969961 149.60588 19.3351981 148.985253 18.8153952L149.100516 16.4474042 149.244906 16.4474042zM146.537599 15.581066C146.537599 18.1653926 145.050385 19.7969961 142.480497 19.7969961 139.910112 19.7969961 138.423147 18.1653926 138.423147 15.581066L138.423147 9.48806977 140.473232 9.48806977 140.473232 15.7543336C140.473232 17.5447658 141.455082 18.0645687 142.480497 18.0645687 143.505415 18.0645687 144.487265 17.5447658 144.487265 15.7543336L144.487265 9.48806977 146.537599 9.48806977 146.537599 15.581066zM133.899269 9.48806977L136.584917 19.5950995 134.5779 19.5950995 133.119564 14.2382418 130.6505 19.5950995 130.188702 19.5950995 127.719638 14.2382418 126.261303 19.5950995 124.254286 19.5950995 126.939934 9.48806977 127.604127 9.48806977 130.419477 15.7110167 133.235076 9.48806977 133.899269 9.48806977zM117.407476 13.5596102L118.374887 13.5596102C119.371176 13.5596102 119.89073 13.184446 119.89073 12.4044927 119.89073 11.6247883 119.371176 11.2493751 118.374887 11.2493751L117.407476 11.2493751 117.407476 13.5596102zM117.898401 15.3211645L117.407476 15.3211645 117.407476 19.5950995 115.356893 19.5950995 115.356893 9.48806977 118.547905 9.48806977C120.511854 9.48806977 121.941063 10.5563046 121.941063 12.4044927 121.941063 13.7473168 121.190237 14.6714109 120.035119 15.090141L122.735207 19.5950995 120.468537 19.5950995 117.898401 15.3211645zM112.512665 15.581066C112.512665 18.1653926 111.025451 19.7969961 108.455315 19.7969961 105.885427 19.7969961 104.398213 18.1653926 104.398213 15.581066L104.398213 9.48806977 106.448298 9.48806977 106.448298 15.7543336C106.448298 17.5447658 107.430397 18.0645687 108.455315 18.0645687 109.480482 18.0645687 110.462331 17.5447658 110.462331 15.7543336L110.462331 9.48806977 112.512665 9.48806977 112.512665 15.581066zM101.65456 15.581066C101.65456 18.1653926 100.167595 19.7969961 97.5974585 19.7969961 95.027073 19.7969961 93.540108 18.1653926 93.540108 15.581066L93.540108 9.48806977 95.5904417 9.48806977 95.5904417 15.7543336C95.5904417 17.5447658 96.5720427 18.0645687 97.5974585 18.0645687 98.6226253 18.0645687 99.6042263 17.5447658 99.6042263 15.7543336L99.6042263 9.48806977 101.65456 9.48806977 101.65456 15.581066zM84.673336 9.48806977L91.5749145 9.48806977 91.5749145 11.2204972 89.1491676 11.2204972 89.1491676 19.5950995 87.0990829 19.5950995 87.0990829 11.2204972 84.673336 11.2204972 84.673336 9.48806977zM78.140947 16.1297468L80.7688395 16.1297468 79.4548932 13.0686853 78.140947 16.1297468zM79.7581116 9.48806977L84.2341922 19.5950995 82.2416144 19.5950995 81.490539 17.8624232 77.4189985 17.8624232 76.6681721 19.5950995 74.6755943 19.5950995 79.1516749 9.48806977 79.7581116 9.48806977zM68.2661855 13.5596102L69.2338454 13.5596102C70.2301343 13.5596102 70.7499372 13.184446 70.7499372 12.4044927 70.7499372 11.6247883 70.2301343 11.2493751 69.2338454 11.2493751L68.2661855 11.2493751 68.2661855 13.5596102zM68.7573594 15.3211645L68.2661855 15.3211645 68.2661855 19.5950995 66.2161008 19.5950995 66.2161008 9.48806977 69.4068641 9.48806977C71.3708129 9.48806977 72.800022 10.5563046 72.800022 12.4044927 72.800022 13.7473168 72.0494445 14.6714109 70.8943269 15.090141L73.5944142 19.5950995 71.3272471 19.5950995 68.7573594 15.3211645zM57.0996341 9.48806977L63.5244777 9.48806977 63.5244777 11.2204972 59.1497189 11.2204972 59.1497189 13.5307323 63.365898 13.5307323 63.365898 15.2634087 59.1497189 15.2634087 59.1497189 17.8624232 63.5824825 17.8624232 63.5824825 19.5950995 57.0996341 19.5950995 57.0996341 9.48806977zM48.1661441 9.48806977L55.0679715 9.48806977 55.0679715 11.2204972 52.6422246 11.2204972 52.6422246 19.5950995 50.591891 19.5950995 50.591891 11.2204972 48.1661441 11.2204972 48.1661441 9.48806977zM44.1003294 19.5950995L46.1504141 19.5950995 46.1504141 9.48806977 44.1003294 9.48806977 44.1003294 19.5950995zM35.0007912 9.48806977L37.0511249 9.48806977 37.0511249 17.8624232 41.9892525 17.8624232 41.9892525 19.5950995 35.0007912 19.5950995 35.0007912 9.48806977z"/>
  </g>
</svg>
