<svg xmlns="http://www.w3.org/2000/svg" width="128" height="128" viewBox="0 0 128 128"><g fill="none" fill-rule="evenodd"><rect width="128" height="128" fill="#FFF"/><g fill="#002048" fill-rule="nonzero" transform="translate(34 19)"><polygon points="19.09 0 19.09 90 0 90 0 0"/><path d="M31.5874803 42.63229C29.2636794 42.63229 27.4262553 43.3686107 25.4672371 44.469714L25.4672371 43.4902049C29.0137356 38.2278766 35.8702995 33.5802747 43.8212114 33.5802747 54.7106508 33.5802747 59.2366584 39.7005179 59.2366584 49.4888539L59.2366584 89.9054267 40.1531187 89.9054267 40.1531187 50.8331457C40.1531187 45.0776852 37.0929971 42.63229 31.5874803 42.63229ZM39.3897771 15.4424679C39.3897771 9.20063049 44.1589732 5.28934925 49.66449 5.28934925 55.4131952 5.28934925 60.0675524 9.20738572 60.0675524 15.4424679 60.0675524 21.6843053 55.0484125 25.3523981 49.66449 25.3523981 44.4021617 25.3523981 39.3897771 21.6843053 39.3897771 15.4424679Z"/></g></g></svg>