<svg xmlns="http://www.w3.org/2000/svg" width="69" height="48" viewBox="0 0 69 48"><g fill="none" fill-rule="evenodd"><rect width="69" height="48" fill="#FFF"/><g fill="#002048" fill-rule="nonzero" transform="translate(21 4)"><polygon points="8.485 0 8.485 40 0 40 0 0"/><path d="M14.0388801 18.9476845C13.0060797 18.9476845 12.1894468 19.2749381 11.318772 19.7643173L11.318772 19.32898C12.8949936 16.9901674 15.9423553 14.9245665 19.476094 14.9245665 24.3158448 14.9245665 26.3274037 17.6446746 26.3274037 21.9950462L26.3274037 39.9579674 17.8458305 39.9579674 17.8458305 22.5925092C17.8458305 20.0345268 16.4857765 18.9476845 14.0388801 18.9476845ZM17.5065676 6.86331907C17.5065676 4.08916911 19.6262103 2.35082189 22.0731067 2.35082189 24.6280868 2.35082189 26.6966899 4.09217143 26.6966899 6.86331907 26.6966899 9.63746904 24.4659611 11.2677325 22.0731067 11.2677325 19.7342941 11.2677325 17.5065676 9.63746904 17.5065676 6.86331907Z"/></g></g></svg>