<svg xmlns="http://www.w3.org/2000/svg" width="128" height="128" viewBox="0 0 128 128"><g fill="none" fill-rule="evenodd"><rect width="128" height="128" fill="#FFF"/><g fill="#002048" fill-rule="nonzero" transform="translate(14 44)"><polygon points="8.512 0 8.512 40.127 0 40.127 0 0"/><path d="M14.0834889 19.0078911C13.0474068 19.0078911 12.228179 19.3361846 11.3547377 19.8271188L11.3547377 19.3903982C12.9359677 17.044154 15.9930125 14.9719896 19.5379796 14.9719896 24.3931088 14.9719896 26.4110596 17.7007409 26.4110596 22.0649358L26.4110596 40.0849346 17.902536 40.0849346 17.902536 22.6642973C17.902536 20.0981869 16.5381604 19.0078911 14.0834889 19.0078911ZM17.562195 6.8851274C17.562195 4.10216252 19.688573 2.35829167 22.1432444 2.35829167 24.706343 2.35829167 26.7815192 4.10517439 26.7815192 6.8851274 26.7815192 9.66809228 24.5437022 11.3035359 22.1432444 11.3035359 19.7970002 11.3035359 17.562195 9.66809228 17.562195 6.8851274Z"/><path d="M2.19565086 5.23462442 2.2287814 5.23462442C2.37937474 4.90934281 2.65044274 4.61417987 3.03294982 4.34913559 3.41846877 4.08409132 3.91241491 3.95156918 4.520812 3.95156918 5.04186495 3.95156918 5.48159749 4.03891332 5.84603337 4.21058972 6.21046925 4.385278 6.50563219 4.611168 6.7315222 4.89428348 6.96042407 5.17739895 7.12306488 5.50268056 7.21944461 5.87012831 7.31582435 6.23757605 7.36702608 6.62309499 7.36702608 7.02367327L7.36702608 11.9510873 5.41533643 11.9510873 5.41533643 7.9995181C5.41533643 7.78266369 5.40328896 7.54171435 5.38220589 7.27667008 5.36112282 7.01162581 5.30389736 6.76164087 5.21052949 6.52972712 5.11716162 6.29781338 4.97560388 6.10204205 4.77983254 5.94542497 4.5840612 5.7888079 4.31901693 5.71049937 3.98168785 5.71049937 3.65640624 5.71049937 3.38232637 5.76471297 3.15944823 5.87314017 2.93657009 5.98156738 2.75284621 6.12914885 2.60526474 6.31287272 2.45768327 6.49659659 2.35226794 6.70742726 2.28901873 6.9483766 2.22275767 7.18631408 2.192639 7.43629902 2.192639 7.69531956L2.192639 11.957111.24094934 11.957111.24094934-4.28012009e-15 2.192639-4.28012009e-15 2.192639 5.23462442 2.19565086 5.23462442ZM16.7520029 11.9540992 14.896693 11.9540992 14.896693 10.7011626 14.8635624 10.7011626C14.6798386 11.0927053 14.3967231 11.4300343 14.0172279 11.7191735 13.6377327 12.0053009 13.1227035 12.1498705 12.4721402 12.1498705 11.9510873 12.1498705 11.5083429 12.0655382 11.1469189 11.8968737 10.782483 11.7282091 10.48732 11.5023191 10.26143 11.2131799 10.0325282 10.9270526 9.86988736 10.5987591 9.77350762 10.2282995 9.67712788 9.86085176 9.62592615 9.47533281 9.62592615 9.07475453L9.62592615 4.14734052 11.5776158 4.14734052 11.5776158 8.0989097C11.5776158 8.31576411 11.5896633 8.55671345 11.6107463 8.82175773 11.6318294 9.086802 11.6890549 9.33678694 11.7824227 9.56870068 11.8757906 9.80061442 12.0143365 9.99638576 12.2040841 10.1530028 12.3938317 10.3096199 12.6618878 10.3879284 13.0082525 10.3879284 13.3335341 10.3879284 13.607614 10.3337148 13.8304921 10.2252876 14.0533703 10.1168604 14.2370942 9.96927896 14.3846756 9.78555509 14.5322571 9.60183121 14.6376724 9.39100054 14.7009216 9.1500512 14.7671827 8.91211373 14.7973014 8.66212879 14.7973014 8.40310825L14.7973014 4.14734052 16.748991 4.14734052 16.748991 11.9540992 16.7520029 11.9540992ZM18.3844347 4.14734052 20.5318957 4.14734052 22.7124872 9.56267695 22.7456177 9.56267695 24.6973074 4.14734052 26.7303175 4.14734052 23.0377688 13.6286971C22.8962111 13.9961448 22.7426059 14.3214264 22.5739413 14.5955063 22.4052768 14.872598 22.2095055 15.1045118 21.9806036 15.2942594 21.7517017 15.484007 21.4836456 15.6255647 21.1764352 15.7159207 20.8662129 15.8092886 20.4957533 15.8544666 20.0620445 15.8544666 19.553039 15.8544666 19.0530691 15.7882055 18.5651467 15.6586953L18.8091079 13.9027769C18.9597012 13.9569905 19.1193302 14.0021685 19.2879947 14.0413228 19.4566592 14.0774652 19.6253238 14.0985483 19.800012 14.0985483 20.0379495 14.0985483 20.2397446 14.0774652 20.4023854 14.0322872 20.5650262 13.9901211 20.7035721 13.9208481 20.818023 13.8304921 20.9324739 13.7371243 21.0258418 13.6196615 21.1041504 13.47208 21.179447 13.3244985 21.2607674 13.1498103 21.3481116 12.9450033L21.721583 12.0173484 18.3844347 4.14734052ZM35.8141076 4.14734052 35.8141076 11.2553461C35.8141076 11.9601229 35.7267634 12.5986386 35.555087 13.1678815 35.3803988 13.7371243 35.1123426 14.219023 34.7509186 14.6165894 34.3864827 15.0111439 33.928679 15.3183543 33.3775074 15.5352087 32.8233239 15.7520631 32.1697488 15.8604903 31.4107584 15.8604903 30.6848985 15.8604903 29.995181 15.7671225 29.3446178 15.5833986 28.6940546 15.3996747 28.0916812 15.0623456 27.5405096 14.5744232L28.7121258 12.9811457C29.1036685 13.3395579 29.5102705 13.6166496 29.9319318 13.8094091 30.3535932 14.0051804 30.8415156 14.1015601 31.3956991 14.1015601 31.8625384 14.1015601 32.2540811 14.0352991 32.5763508 13.9057888 32.8956087 13.7762785 33.1516174 13.5955665 33.341365 13.3696765 33.5311126 13.1437865 33.6666466 12.8666948 33.747967 12.5474369 33.8292874 12.228179 33.8714535 11.8727787 33.8714535 11.4812361L33.8714535 10.9119933 33.838323 10.9119933C33.5552075 11.2914885 33.181736 11.5776158 32.7148967 11.7643515 32.2480573 11.9540992 31.7721824 12.0504789 31.28426 12.0504789 30.6999578 12.0504789 30.1668574 11.9450636 29.6909825 11.7342329 29.2151075 11.5234022 28.8054936 11.2372749 28.4621408 10.8788627 28.1217999 10.5204506 27.8567556 10.0987892 27.6730317 9.61086682 27.4893079 9.1229444 27.39594 8.60189145 27.39594 8.05071984 27.39594 7.47545329 27.4832841 6.939341 27.6549605 6.43937112 27.8296488 5.93940124 28.0826456 5.50569243 28.4199747 5.13824468 28.7573038 4.77079694 29.1608939 4.47864586 29.6307451 4.26781519 30.1036082 4.05698452 30.6427324 3.95156918 31.2481176 3.95156918 31.8023011 3.95156918 32.3173303 4.05999639 32.7932052 4.27685079 33.2690802 4.4937052 33.6485754 4.84006988 33.9316909 5.31895669L33.9648214 5.31895669 33.9648214 4.14734052 35.8141076 4.14734052 35.8141076 4.14734052ZM31.6486959 5.7074875C31.3023312 5.7074875 30.9860852 5.76471297 30.7059816 5.87916391 30.4228661 5.99361484 30.1819168 6.15023191 29.9831335 6.35202699 29.7813385 6.55382206 29.6247214 6.79778327 29.5102705 7.08391061 29.3958195 7.37003795 29.3385941 7.68929583 29.3385941 8.0356605 29.3385941 8.34889464 29.3958195 8.64405759 29.5102705 8.91512559 29.6247214 9.1861936 29.7843503 9.42413108 29.9891573 9.63194988 30.1939642 9.83675682 30.4379254 9.99939763 30.7210409 10.1198723 31.0041564 10.240347 31.3053431 10.2975724 31.6306247 10.2975724 31.9890368 10.2975724 32.3113065 10.2373351 32.5974339 10.1198723 32.8835612 9.99939763 33.1275224 9.83976869 33.3293175 9.64098548 33.5311126 9.43919041 33.6847178 9.19824107 33.793145 8.91813746 33.9015722 8.63502199 33.9557858 8.33383531 33.9557858 8.0085537 33.9557858 7.32485995 33.7509789 6.77368833 33.3383531 6.34901512 32.9287392 5.91831817 32.3655201 5.7074875 31.6486959 5.7074875ZM39.4976206 8.73140172C39.5638817 9.31570387 39.7897717 9.77350762 40.1813144 10.0987892 40.5728571 10.4240708 41.0427083 10.5867116 41.5968918 10.5867116 42.0848142 10.5867116 42.494428 10.48732 42.8257334 10.285525 43.1570387 10.0837299 43.4461779 9.83374496 43.6961629 9.52954641L45.0936691 10.5867116C44.6388772 11.1499307 44.1298717 11.5535209 43.5636407 11.7914583 43.0004217 12.0293958 42.4100958 12.1498705 41.7896512 12.1498705 41.2053491 12.1498705 40.6511656 12.0534908 40.1301126 11.8577194 39.6090597 11.6619481 39.1602915 11.3848563 38.7807963 11.0294561 38.4013011 10.6710439 38.1001145 10.240347 37.8772363 9.73736522 37.6543582 9.23438347 37.5429191 8.67116439 37.5429191 8.0537317 37.5429191 7.43629902 37.6543582 6.87307993 37.8772363 6.37009819 38.1001145 5.86711644 38.4013011 5.43340763 38.7807963 5.07800735 39.1602915 4.71959521 39.6090597 4.44250346 40.1301126 4.24974399 40.6511656 4.05397265 41.2023372 3.95759292 41.7896512 3.95759292 42.3317872 3.95759292 42.8287453 4.05397265 43.2775134 4.24372026 43.7262815 4.43346786 44.1118005 4.70754774 44.4310584 5.06595988 44.7503162 5.42437203 45.0003012 5.86711644 45.1780013 6.39118125 45.3557015 6.91825794 45.4460575 7.52063129 45.4460575 8.20432504L45.4460575 8.74043732 39.4976206 8.74043732 39.4976206 8.73140172ZM43.4973797 7.26763448C43.4853322 6.69236793 43.3076321 6.24058792 42.9612674 5.90928257 42.6149027 5.57797723 42.133004 5.41232456 41.5125595 5.41232456 40.9282573 5.41232456 40.4644299 5.5809891 40.121077 5.91530631 39.7807361 6.25263538 39.5699054 6.70140353 39.4946088 7.26462261L43.4973797 7.26462261 43.4973797 7.26763448ZM47.3013674 4.14734052 49.1566773 4.14734052 49.1566773 5.40027709 49.1898078 5.40027709C49.3735317 5.00873441 49.6566472 4.67140534 50.0361424 4.38226613 50.4156376 4.09613879 50.9306668 3.95156918 51.58123 3.95156918 52.102283 3.95156918 52.5420155 4.03891332 52.9064514 4.21058972 53.2708873 4.385278 53.5660502 4.611168 53.7919402 4.89428348 54.0208421 5.17739895 54.1834829 5.50268056 54.2798627 5.87012831 54.3762424 6.23757605 54.4274441 6.62309499 54.4274441 7.02367327L54.4274441 11.9510873 52.4757545 11.9510873 52.4757545 7.9995181C52.4757545 7.78266369 52.463707 7.54171435 52.4426239 7.27667008 52.4215409 7.01162581 52.3643154 6.76164087 52.2709475 6.52972712 52.1775797 6.29781338 52.0360219 6.10204205 51.8402506 5.94542497 51.6444792 5.7888079 51.379435 5.71049937 51.0421059 5.71049937 50.7168243 5.71049937 50.4427444 5.76471297 50.2198663 5.87314017 49.9969881 5.98156738 49.8132643 6.12914885 49.6656828 6.31287272 49.5181013 6.49659659 49.412686 6.70742726 49.3494368 6.9483766 49.2831757 7.18631408 49.253057 7.43629902 49.253057 7.69531956L49.253057 11.957111 47.3013674 11.957111 47.3013674 4.14734052ZM60.9752425 6.30986085C60.5957472 5.7797723 60.0867418 5.51171616 59.4452141 5.51171616 59.1861936 5.51171616 58.9301849 5.57797723 58.6802 5.7074875 58.430215 5.83699777 58.3067285 6.04782844 58.3067285 6.34299139 58.3067285 6.58092886 58.409132 6.75561713 58.6169508 6.86404433 58.8217577 6.97247154 59.0837901 7.06583941 59.3970243 7.14113608 59.7102584 7.21643275 60.0505994 7.29474128 60.4150352 7.37606168 60.7794711 7.45738209 61.1168002 7.58086862 61.4330462 7.74953316 61.7462803 7.9181977 62.0083128 8.14709957 62.2131197 8.43925065 62.4179266 8.73140172 62.523342 9.13198 62.523342 9.64399735 62.523342 10.1108367 62.4239504 10.5023794 62.2221553 10.8246491 62.0203602 11.143907 61.7613397 11.4029275 61.4420818 11.595687 61.1228239 11.7914583 60.7613999 11.9330161 60.3608216 12.0173484 59.9602434 12.1046925 59.5596651 12.1468586 59.1560749 12.1468586 58.5476779 12.1468586 57.9904825 12.0595145 57.481477 11.8878381 56.9724715 11.7131498 56.5176797 11.3999157 56.1140895 10.9451238L57.415216 9.72531775C57.6652009 10.0084332 57.933257 10.2373351 58.2193844 10.4180471 58.5055117 10.5957472 58.8548883 10.6861032 59.267514 10.6861032 59.4090717 10.6861032 59.5536413 10.6710439 59.7072466 10.6379134 59.8578399 10.6047828 59.9993976 10.5505692 60.1289079 10.4752726 60.2584182 10.3999759 60.3638335 10.3035962 60.4451539 10.1891452 60.5264743 10.0746943 60.5656286 9.94217216 60.5656286 9.79157882 60.5656286 9.52051081 60.4632251 9.31871574 60.2554063 9.18920547 60.0505994 9.0596952 59.788567 8.95427986 59.4753328 8.87295946 59.1620987 8.79163906 58.8217577 8.71634239 58.4573218 8.64405759 58.092886 8.57478465 57.7555569 8.46033371 57.4393109 8.30371664 57.1260767 8.14709957 56.8640443 7.9272333 56.6592374 7.64411782 56.4544305 7.36100235 56.3490151 6.97247154 56.3490151 6.47250166 56.3490151 6.03879284 56.4393711 5.6623095 56.6170713 5.34305162 56.7947714 5.02379375 57.0327089 4.76176134 57.3248599 4.55394253 57.617011 4.34913559 57.9543401 4.19553039 58.3338353 4.09915065 58.7133305 4.00277092 59.0988495 3.95156918 59.4873803 3.95156918 60.0084332 3.95156918 60.5234624 4.04192519 61.0324679 4.21962532 61.5414734 4.39732546 61.9540992 4.70453587 62.2673333 5.13824468L60.9752425 6.30986085ZM0 18.5711704C0 18.2579363.117462803 17.9838564.349376544 17.7489308.581290284 17.517017.876453226 17.3995542 1.23486537 17.3995542 1.59327751 17.3995542 1.89446419 17.5109933 2.1384254 17.7338715 2.3823866 17.9567496 2.50587314 18.2368532 2.50587314 18.5711704 2.50587314 18.9054876 2.3823866 19.1855912 2.1384254 19.4084694 1.89446419 19.6313475 1.59327751 19.7427866 1.23486537 19.7427866.876453226 19.7427866.581290284 19.6253238.349376544 19.39341.117462803 19.1584844 0 18.8844046 0 18.5711704ZM.277091741 21.2216132 2.2287814 21.2216132 2.2287814 29.0283718.277091741 29.0283718.277091741 21.2216132ZM4.6473104 21.2216132 6.50262032 21.2216132 6.50262032 22.4745497 6.53575086 22.4745497C6.71947473 22.083007 7.00259021 21.745678 7.38208542 21.4565388 7.76158063 21.1704114 8.27660984 21.0258418 8.92717306 21.0258418 9.44822601 21.0258418 9.88795856 21.113186 10.2523944 21.2848624 10.6168303 21.4595506 10.9119933 21.6854406 11.1378833 21.9685561 11.3667851 22.2516716 11.5294259 22.5769532 11.6258057 22.9444009 11.7221854 23.3118487 11.7733871 23.6973676 11.7733871 24.0979459L11.7733871 29.0253599 9.82169749 29.0253599 9.82169749 25.0737907C9.82169749 24.8569363 9.80965002 24.615987 9.78856695 24.3509427 9.76748389 24.0858984 9.71025842 23.8359135 9.61689055 23.6039998 9.52352268 23.372086 9.38196494 23.1763147 9.1861936 23.0196976 8.99042226 22.8630805 8.72537799 22.784772 8.38804891 22.784772 8.0627673 22.784772 7.78868743 22.8389856 7.56580929 22.9474128 7.34293115 23.05584 7.15920728 23.2034215 7.01162581 23.3871454 6.86404433 23.5708692 6.758629 23.7816999 6.6953798 24.0226492 6.62911873 24.2605867 6.59900006 24.5105717 6.59900006 24.7695922L6.59900006 29.0313837 4.6473104 29.0313837 4.6473104 21.2216132 4.6473104 21.2216132ZM17.9838564 23.3841335C17.6043612 22.8540449 17.0953557 22.5859888 16.4538281 22.5859888 16.1948075 22.5859888 15.9387989 22.6522499 15.6888139 22.7817601 15.438829 22.9112704 15.3153424 23.1221011 15.3153424 23.417264 15.3153424 23.6552015 15.4177459 23.8298898 15.6255647 23.938317 15.8303717 24.0467442 16.0924041 24.140112 16.4056382 24.2154087 16.7188724 24.2907054 17.0592133 24.3690139 17.4236492 24.4503343 17.7880851 24.5316547 18.1254141 24.6551413 18.4416601 24.8238058 18.7548943 24.9924703 19.0169267 25.2213722 19.2217336 25.5135233 19.4265406 25.8056744 19.5319559 26.2062526 19.5319559 26.71827 19.5319559 27.1851093 19.4325643 27.576652 19.2307692 27.8989218 19.0289742 28.2181796 18.7699536 28.4772002 18.4506957 28.6699596 18.1314379 28.865731 17.7700139 29.0072887 17.3694356 29.091621 16.9688573 29.1789651 16.568279 29.2211313 16.1646889 29.2211313 15.5562918 29.2211313 14.9990964 29.1337871 14.490091 28.9621107 13.9810855 28.7874224 13.5262936 28.4741883 13.1227035 28.0193964L14.4238299 26.7995904C14.6738148 27.0827059 14.941871 27.3116077 15.2279983 27.4923197 15.5141257 27.6700199 15.8635022 27.7603759 16.2761279 27.7603759 16.4176857 27.7603759 16.5622553 27.7453165 16.7158605 27.712186 16.8664538 27.6790555 17.0080116 27.6248419 17.1375218 27.5495452 17.2670321 27.4742485 17.3724474 27.3778688 17.4537678 27.2634179 17.5350882 27.1489669 17.5742425 27.0164448 17.5742425 26.8658515 17.5742425 26.5947834 17.471839 26.3929884 17.2640202 26.2634781 17.0592133 26.1339678 16.7971809 26.0285525 16.4839468 25.9472321 16.1707126 25.8659117 15.8303717 25.790615 15.4659358 25.7183302 15.1014999 25.6490573 14.7641708 25.5346063 14.4479248 25.3779893 14.1346907 25.2213722 13.8726583 25.0015059 13.6678513 24.7183905 13.4630444 24.435275 13.3576291 24.0467442 13.3576291 23.5467743 13.3576291 23.1130655 13.4479851 22.7365821 13.6256852 22.4173243 13.8033853 22.0980664 14.0413228 21.836034 14.3334739 21.6282152 14.625625 21.4234082 14.962954 21.269803 15.3424493 21.1734233 15.7219445 21.0770436 16.1074634 21.0258418 16.4959942 21.0258418 17.0170472 21.0258418 17.5320764 21.1161978 18.0410819 21.293898 18.5500873 21.4715981 18.9627131 21.7788085 19.2759472 22.2125173L17.9838564 23.3841335ZM20.2909463 22.8811517 20.2909463 21.2216132 21.7517017 21.2216132 21.7517017 18.9597012 23.7033914 18.9597012 23.7033914 21.2216132 25.8508524 21.2216132 25.8508524 22.8811517 23.7033914 22.8811517 23.7033914 26.2966086C23.7033914 26.6881513 23.7756762 26.9953617 23.9232576 27.2242636 24.0708391 27.4531655 24.3599783 27.5646045 24.7936871 27.5646045 24.9683754 27.5646045 25.158123 27.5465333 25.3629299 27.5073791 25.5677369 27.4682248 25.7303777 27.4079875 25.8508524 27.3206433L25.8508524 28.9621107C25.6460454 29.0584905 25.3930486 29.1277634 25.0948738 29.1639058 24.796699 29.2030601 24.5346666 29.2211313 24.3057647 29.2211313 23.7847118 29.2211313 23.3600386 29.1639058 23.0287332 29.0494549 22.6974279 28.9350039 22.4384073 28.7633275 22.2486597 28.5284019 22.0589121 28.2964882 21.9294018 28.0043371 21.857117 27.6579724 21.7878441 27.3116077 21.7517017 26.9110295 21.7517017 26.4532257L21.7517017 22.875128 20.2909463 22.875128 20.2909463 22.8811517ZM27.4893079 18.5711704C27.4893079 18.2579363 27.6067707 17.9838564 27.8386844 17.7489308 28.0705982 17.517017 28.3657611 17.3995542 28.7241732 17.3995542 29.0825854 17.3995542 29.3837721 17.5109933 29.6277333 17.7338715 29.8716945 17.9567496 29.995181 18.2368532 29.995181 18.5711704 29.995181 18.9054876 29.8716945 19.1855912 29.6277333 19.4084694 29.3837721 19.6313475 29.0825854 19.7427866 28.7241732 19.7427866 28.3657611 19.7427866 28.0705982 19.6253238 27.8386844 19.39341 27.6067707 19.1584844 27.4893079 18.8844046 27.4893079 18.5711704ZM27.7663996 21.2216132 29.7180893 21.2216132 29.7180893 29.0283718 27.7663996 29.0283718 27.7663996 21.2216132 27.7663996 21.2216132ZM31.4981025 22.8811517 31.4981025 21.2216132 32.9588579 21.2216132 32.9588579 18.9597012 34.9105476 18.9597012 34.9105476 21.2216132 37.0580086 21.2216132 37.0580086 22.8811517 34.9105476 22.8811517 34.9105476 26.2966086C34.9105476 26.6881513 34.9828324 26.9953617 35.1304138 27.2242636 35.2779953 27.4531655 35.5671345 27.5646045 36.0008433 27.5646045 36.1755316 27.5646045 36.3652792 27.5465333 36.5700861 27.5073791 36.7748931 27.4682248 36.9375339 27.4079875 37.0580086 27.3206433L37.0580086 28.9621107C36.8532016 29.0584905 36.6002048 29.1277634 36.30203 29.1639058 36.0038552 29.2030601 35.7418228 29.2211313 35.5129209 29.2211313 34.991868 29.2211313 34.5671947 29.1639058 34.2358894 29.0494549 33.9045841 28.9350039 33.6455635 28.7633275 33.4558159 28.5284019 33.2660683 28.2964882 33.136558 28.0043371 33.0642732 27.6579724 32.9950003 27.3116077 32.9588579 26.9110295 32.9588579 26.4532257L32.9588579 22.875128 31.4981025 22.875128 31.4981025 22.8811517ZM46.1839648 29.0283718 44.3286549 29.0283718 44.3286549 27.7754352 44.2955244 27.7754352C44.1118005 28.1669779 43.828685 28.504307 43.4491898 28.7934462 43.0696946 29.0795735 42.5546654 29.2241431 41.9041022 29.2241431 41.3830492 29.2241431 40.9403048 29.1398109 40.5788808 28.9711463 40.2144449 28.8024818 39.919282 28.5765918 39.693392 28.2874526 39.4644901 28.0013252 39.3018493 27.6730317 39.2054696 27.3025721 39.1090898 26.9351244 39.0578881 26.5496054 39.0578881 26.1490272L39.0578881 21.2216132 41.0095777 21.2216132 41.0095777 25.1731823C41.0095777 25.3900367 41.0216252 25.6309861 41.0427083 25.8960304 41.0637913 26.1610746 41.1210168 26.4110596 41.2143847 26.6429733 41.3077525 26.8748871 41.4462984 27.0706584 41.636046 27.2272755 41.8257936 27.3838925 42.0938498 27.4622011 42.4402144 27.4622011 42.7654961 27.4622011 43.0395759 27.4079875 43.2624541 27.2995603 43.4853322 27.1911331 43.6690561 27.0435516 43.8166376 26.8598277 43.964219 26.6761038 44.0696344 26.4652732 44.1328836 26.2243238 44.1991446 25.9863864 44.2292633 25.7364014 44.2292633 25.4773809L44.2292633 21.2155894 46.180953 21.2155894 46.180953 29.0283718 46.1839648 29.0283718ZM55.4906331 29.0283718 53.6353232 29.0283718 53.6353232 27.7754352 53.6021926 27.7754352C53.4184688 28.1669779 53.1353533 28.504307 52.7558581 28.7934462 52.3763629 29.0795735 51.8613337 29.2241431 51.2107704 29.2241431 50.6897175 29.2241431 50.2469731 29.1398109 49.8855491 28.9711463 49.5211132 28.8024818 49.2259502 28.5765918 49.0000602 28.2874526 48.7711584 28.0013252 48.6085176 27.6730317 48.5121378 27.3025721 48.4157581 26.9351244 48.3645564 26.5496054 48.3645564 26.1490272L48.3645564 21.2216132 50.316246 21.2216132 50.316246 25.1731823C50.316246 25.3900367 50.3282935 25.6309861 50.3493765 25.8960304 50.3704596 26.1610746 50.4276851 26.4110596 50.5210529 26.6429733 50.6144208 26.8748871 50.7529667 27.0706584 50.9427143 27.2272755 51.1324619 27.3838925 51.400518 27.4622011 51.7468827 27.4622011 52.0721643 27.4622011 52.3462442 27.4079875 52.5691223 27.2995603 52.7920005 27.1911331 52.9757244 27.0435516 53.1233058 26.8598277 53.2708873 26.6761038 53.3763026 26.4652732 53.4395518 26.2243238 53.5058129 25.9863864 53.5359316 25.7364014 53.5359316 25.4773809L53.5359316 21.2155894 55.4906331 21.2155894 55.4906331 29.0283718ZM57.1471598 22.8811517 57.1471598 21.2216132 58.6079152 21.2216132 58.6079152 18.9597012 60.5596048 18.9597012 60.5596048 21.2216132 62.7070658 21.2216132 62.7070658 22.8811517 60.5596048 22.8811517 60.5596048 26.2966086C60.5596048 26.6881513 60.6318896 26.9953617 60.7794711 27.2242636 60.9270526 27.4531655 61.2161918 27.5646045 61.6499006 27.5646045 61.8245889 27.5646045 62.0143365 27.5465333 62.2191434 27.5073791 62.4239504 27.4682248 62.5865912 27.4079875 62.7070658 27.3206433L62.7070658 28.9621107C62.5022589 29.0584905 62.2492621 29.1277634 61.9510873 29.1639058 61.6529125 29.2030601 61.3908801 29.2211313 61.1619782 29.2211313 60.6409252 29.2211313 60.216252 29.1639058 59.8849467 29.0494549 59.5536413 28.9350039 59.2946208 28.7633275 59.1048732 28.5284019 58.9151256 28.2964882 58.7856153 28.0043371 58.7133305 27.6579724 58.6440576 27.3116077 58.6079152 26.9110295 58.6079152 26.4532257L58.6079152 22.875128 57.1471598 22.875128 57.1471598 22.8811517Z" transform="translate(37.293 11.099)"/></g></g></svg>