<svg xmlns="http://www.w3.org/2000/svg" width="69" height="48" viewBox="0 0 69 48" xmlns:xlink="http://www.w3.org/1999/xlink">
  <defs>
    <polygon id="a" points="0 47.814 68.855 47.814 68.855 0 0 0"/>
  </defs>
  <g fill="none" fill-rule="evenodd">
    <mask id="b" fill="white">
      <use xlink:href="#a"/>
    </mask>
    <path fill="#FFFFFF" d="M35.3612116,18.4707408 C35.1235768,18.7209657 35.0073361,19.0052734 35.0073361,19.336729 L35.0073361,21.9196402 C35.0073361,22.2655811 35.1270124,22.5521609 35.3726639,22.7935811 C35.6171701,23.0347172 35.9106349,23.152871 36.2685187,23.152871 L37.1944357,23.152871 C37.5494564,23.152871 37.8417759,23.0347172 38.0891452,22.7935811 C38.3368008,22.5535811 38.4556183,22.2709775 38.4556183,21.9278769 L38.4556183,18.2361373 L36.1728921,18.1114509 C35.8479336,18.1140071 35.589971,18.2284686 35.3612116,18.4707408 Z M45.8097012,19.3392852 C45.8097012,18.9930604 45.6914564,18.7087527 45.4449461,18.4681846 C45.2001535,18.2281846 44.9069751,18.1114509 44.5479461,18.1114509 L43.6214564,18.1114509 C43.2690124,18.1114509 42.9752614,18.2281846 42.7278921,18.4696047 C42.4808091,18.7090367 42.3611328,18.9939124 42.3611328,19.3392852 L42.3611328,20.1123976 L45.8097012,20.1123976 L45.8097012,19.3392852 Z M31.1396141,45.1047763 C31.4075975,45.785013 33.189,45.0246817 33.0945187,43.9678296 C32.6968382,43.2606107 30.9174398,43.9203976 31.1396141,45.1047763 Z M63.0491079,24.7968 C62.3479419,25.2080663 61.4183029,25.8448473 60.5482158,25.8147408 C60.5582365,26.1450604 60.4428548,26.5248 60.4703402,26.8542675 C61.4228838,26.7991669 62.5715477,26.1683503 63.0491079,24.7968 Z M60.8620083,22.3184095 C60.8620083,21.4279953 60.5585228,20.7619598 59.9564191,20.3362083 C59.5209461,20.0337231 58.9182697,19.8539361 58.1183278,19.7874746 C57.5293942,19.7343621 57.3086515,19.6082556 57.2161743,19.5267408 C57.0171909,19.3614391 56.9748174,18.9976047 56.9748174,18.7223858 C56.9748174,18.3983148 57.0358008,18.1080426 57.767029,18.1040663 L60.5507925,18.2827172 L60.1267718,16.7546698 C57.8560705,16.6052734 57.8122656,16.6052734 57.7813444,16.6052734 C57.0441037,16.6052734 56.4520207,16.8251077 56.0202697,17.261368 C55.6377635,17.6479243 55.4442199,18.1387172 55.4442199,18.7223858 C55.4442199,20.153297 56.1456722,20.7372497 56.7343195,20.9758296 L58.6786307,21.3905041 C59.1361494,21.5248473 59.3311245,21.8023385 59.3311245,22.3184095 C59.3311245,22.5805633 59.2563983,22.7734154 59.0963527,22.924516 C58.9363071,23.0776047 58.7436224,23.1494627 58.4916722,23.152871 L55.7290954,22.9952379 L55.283888,24.4755692 L55.7116307,24.4997112 C58.3677012,24.6513799 58.4427137,24.6513799 58.479361,24.6513799 C59.1224066,24.6513799 59.6824232,24.4341018 60.14939,24.0066462 C60.6226556,23.5706698 60.8620083,23.0040426 60.8620083,22.3184095 Z M59.3992656,31.9902675 C59.1808133,34.0145041 58.6760539,36.4017231 58.6202241,37.7738414 C58.6139253,37.9280663 58.9053859,37.6752852 59.0963527,37.6917586 C59.2701411,36.4679006 59.9005892,33.1374391 59.8533485,31.9567527 C59.8470498,31.805084 59.4671203,32.1106935 59.3992656,31.9902675 Z M59.9939253,37.169155 C60.9808257,36.7397112 61.8363112,35.8240189 62.154112,34.7274036 C61.4795726,34.7555219 60.4136515,34.673155 60.2736473,34.9208237 C60.1617012,35.6334391 60.0022282,36.5374864 59.9939253,37.169155 Z M60.4419959,33.6586225 C61.2407925,33.6157349 62.4973942,33.6963976 62.459029,33.520587 C62.3479419,32.945155 62.0951328,32.753155 61.8151245,32.0121373 C61.6399046,31.5503148 61.9276432,30.8595692 61.0446722,31.3140071 C60.596029,31.8306462 60.4837967,32.7361136 60.4419959,33.6586225 Z M55.9297967,11.1602556 C56.3512407,11.4073562 57.2754398,10.7487053 57.3873859,10.4200899 C57.4157303,9.43140355 56.692805,8.57393609 55.6500747,8.33450414 C54.7522158,9.51405444 55.188834,10.4663858 55.9297967,11.1602556 Z M55.4161618,6.82349822 C54.818639,6.52697751 54.7250166,6.05777041 54.2202573,5.53630296 C54.1936307,5.7984568 53.8137012,6.27646864 53.8002448,6.66103669 C54.2763734,6.96295385 54.9469046,7.3835929 55.4161618,6.82349822 Z M54.6940954,19.3392852 C54.6940954,18.629226 54.4432905,17.9944331 53.9494108,17.452232 C53.4412158,16.8963976 52.807332,16.612942 52.0431784,16.612942 L52.0417469,16.612942 L48.183473,16.781084 L48.183473,24.5019834 L49.7140705,24.5019834 L49.7140705,18.2352852 L51.9149129,18.1108828 L52.0151203,18.1108828 C52.3332075,18.1108828 52.5874481,18.2267645 52.8124855,18.472729 C53.0492614,18.7300544 53.1637842,19.012374 53.1637842,19.3392852 L53.1637842,24.5019834 L54.6940954,23.9095101 L54.6940954,19.3392852 Z M48.9799793,40.132942 C48.3206141,40.1843503 47.3285602,40.0798296 46.9566473,40.4169657 C47.1398838,41.4224095 47.839332,41.9313799 48.6704813,42.3131077 C48.8952324,41.6695101 48.873473,40.7972734 48.9799793,40.132942 Z M46.5151618,24.5039716 L47.0305145,22.973084 L43.6105768,23.152587 L43.5387137,23.152587 C43.208029,23.152587 42.946917,23.0378414 42.7155809,22.7910249 C42.4768008,22.5382438 42.3611328,22.2542201 42.3611328,21.9221964 L42.3611328,21.6117586 L47.3400124,21.6117586 L47.3400124,19.3392852 C47.3400124,18.5897467 47.0640124,17.9404686 46.5206017,17.4110485 C45.9749004,16.8810604 45.3120996,16.612374 44.5479461,16.612374 L43.6214564,16.612374 C42.8578755,16.612374 42.1947884,16.8810604 41.6510913,17.4110485 C41.1059627,17.9404686 40.82939,18.5897467 40.82939,19.3392852 L40.82939,21.9250367 C40.82939,22.6470249 41.087639,23.2860781 41.5944025,23.8234509 C42.1126183,24.3727527 42.7568091,24.6513799 43.5086515,24.6513799 L43.5198174,24.6513799 L46.5151618,24.5039716 Z M43.0915021,39.8477822 C42.6102199,39.820232 41.8892988,39.940374 41.7492946,40.1610604 C41.8048382,40.5447763 42.0845602,40.8731077 42.2809668,41.1480426 C42.8421286,41.0102911 43.4024315,39.9133917 43.0915021,39.8477822 Z M43.9598714,8.74747456 C43.5587552,8.63613728 43.3397303,8.34813728 43.0001701,8.1780071 C42.9265892,8.44413728 42.8716183,9.49019645 43.038249,9.98070533 C43.0952241,10.144871 43.4061535,10.5209183 43.7362656,10.6433325 C44.0847012,10.2851787 43.8968838,9.39050414 43.9598714,8.74747456 Z M42.2660788,5.52380592 C42.6803651,5.80896568 43.8124232,5.9975574 43.7107842,6.24948639 C43.6157303,6.43608994 43.0242199,6.34293018 42.8699004,6.55140355 C42.7170124,6.75902485 42.8143568,7.3199716 42.8155021,7.60882367 C44.0191369,7.56593609 44.2994315,6.90756923 44.9605145,6.66103669 C45.1686598,6.68858698 46.2612075,7.51111953 47.0711701,7.98827929 C47.2984979,8.22515503 46.4856722,8.58132071 46.4579004,8.80087101 C46.440722,9.02127337 46.5145892,9.8159716 46.6540207,9.84323787 C46.8962365,9.89095385 47.2701535,9.2399716 47.635195,8.99258698 C47.8104149,8.87358107 48.2510415,9.12977041 48.728029,9.18572308 C48.8399751,9.2399716 48.307444,9.78898935 48.5971867,9.83528521 C49.2299253,9.61630296 49.7793485,10.4135574 50.1469668,9.83528521 C49.7644606,9.26780592 49.9780456,8.62846864 50.2692199,8.11552189 C49.4913237,7.98458698 49.6788548,8.97668166 48.9934357,8.93720237 C48.4757925,8.14250414 47.2984979,7.97748639 47.4639834,7.60882367 C47.9378216,7.37393609 48.3741535,7.1015574 48.6409917,6.66103669 C48.6996846,6.44120237 49.6522282,7.51111953 50.3814523,7.75822012 C50.9114066,7.93857515 51.3906846,7.40177041 52.1221992,7.04020828 C51.056278,3.8591432 44.3094523,1.91272899 42.2660788,5.52380592 Z M51.702473,9.12636213 C51.7542946,9.51405444 52.7351826,10.1178888 53.0438216,10.0741491 C53.0715934,9.84323787 52.8468423,8.60858698 52.4975477,7.79911953 C52.1745934,7.97748639 51.7165021,8.43391243 51.702473,9.12636213 Z M53.8305934,9.31608994 C54.0788216,8.85653964 54.3241867,8.39500118 54.4349876,7.79911953 C54.1652863,7.59405444 53.8841328,7.53980592 53.6625311,7.60882367 C53.402278,7.91528521 53.2184689,9.28030296 53.8305934,9.31608994 Z M60.8628672,13.5193562 C61.3670539,13.7397586 61.6751203,14.0132734 61.9559876,14.4248237 C62.2196763,14.1376757 62.5274564,13.7965633 62.5996058,13.5474746 C62.5532241,13.1700071 61.0403776,12.7948118 60.8628672,13.5193562 Z M40.2642199,7.10013728 C39.954722,6.93511953 39.8001162,6.60025562 39.5913983,6.68858698 C39.0276598,6.92773491 38.7800041,7.81729704 38.4410166,8.19703669 C38.2128299,8.45464615 37.964888,7.56593609 37.3796763,8.36801893 C37.6848797,8.6639716 38.0507801,8.72702485 38.3299295,8.77388876 C38.5535353,8.81024379 40.0761162,7.71930888 40.2642199,7.10013728 Z M39.9870747,16.7816521 L36.2899917,16.6135101 L36.1551411,16.612374 C35.4030124,16.612374 34.7596805,16.8907172 34.2423237,17.4394509 C33.7341286,17.9768237 33.4767386,18.616729 33.4767386,19.3387172 L33.4767386,21.9250367 C33.4767386,22.6737231 33.7524523,23.3235692 34.2970083,23.8529893 C34.841278,24.3821254 35.5043651,24.6513799 36.2685187,24.6513799 L37.1944357,24.6513799 C37.6596846,24.6513799 38.0814149,24.5576521 38.4556183,24.3719006 L38.4556183,24.9677822 C38.4556183,25.3148592 38.3368008,25.5997349 38.0891452,25.841155 C37.8417759,26.0820071 37.5485975,26.1993089 37.1944357,26.1993089 L36.4205477,26.1993089 C36.0451992,26.1993089 35.7442905,26.0973444 35.5020747,25.8897231 C35.2733154,25.6940308 35.1673817,25.4483503 35.1673817,25.120587 L35.1673817,24.7240899 L33.6439419,25.3421254 C33.6946183,25.9919716 33.9683278,26.5418414 34.4604896,26.980374 C34.9944523,27.4563976 35.6546763,27.6978178 36.4205477,27.6978178 L37.1944357,27.6978178 C37.9594481,27.6978178 38.6219627,27.4299834 39.1659461,26.8997112 C39.7110747,26.3694391 39.9870747,25.721013 39.9870747,24.9723266 L39.9870747,16.7816521 Z M38.0341743,40.8455574 C37.488473,41.2576757 36.5639876,42.5193089 36.7317635,42.5474272 C37.0481328,42.4752852 37.7232448,42.3383858 37.9757676,42.1162793 C38.2294357,41.8938888 38.0610871,41.2568237 38.0341743,40.8455574 Z M36.1322365,42.6670012 C35.5871079,42.0716876 34.2377427,41.8066935 33.5090913,41.5871432 C33.6115892,41.0881136 34.4616349,40.7913089 34.3780332,40.4070249 C33.8512282,40.2749538 33.1134149,40.0647763 32.8643278,40.0778414 C32.688249,40.0869302 32.1359627,40.7364923 32.0314606,40.985297 C32.5742988,42.1455337 34.4590581,43.2197112 36.1322365,42.6670012 Z M31.6750083,26.3313799 L32.6347095,25.9601609 L32.6347095,16.7609183 L31.1021079,16.7609183 L31.1021079,23.0526107 L28.9055602,23.1514509 L28.8007718,23.1514509 C28.4841162,23.1514509 28.2307344,23.0367053 28.0048382,22.7890367 C27.7692075,22.528303 27.6538257,22.2448473 27.6538257,21.9196402 L27.6538257,17.3539598 L26.1226556,16.7609183 L26.1226556,21.9233325 C26.1226556,22.6333917 26.3731743,23.2684686 26.8681992,23.8109538 C27.3749627,24.3690604 28.0108506,24.6519479 28.7741452,24.6519479 L28.7770083,24.6519479 L31.1021079,24.5528237 L31.1021079,26.3793799 L30.1435519,26.7503148 L30.1435519,28.5791432 L31.6750083,27.9858178 L31.6750083,26.3313799 Z M30.2881369,40.985297 L29.1260166,40.985297 C29.4366598,41.8112379 29.7564647,43.1833562 29.6631286,43.8295101 C30.3270747,43.3341728 30.3147635,42.1676876 30.2881369,40.985297 Z M27.872278,26.2694627 L24.1746224,26.0999006 L24.0397718,26.0999006 C23.2885021,26.0999006 22.6454564,26.3785278 22.1269544,26.9266935 C21.618473,27.4654864 21.361083,28.1039716 21.361083,28.8262438 L21.361083,31.4119953 C21.361083,32.1618178 21.6379419,32.8108118 22.1819253,33.340516 C22.726195,33.8705041 23.3889959,34.1391905 24.1534357,34.1391905 L25.079639,34.1391905 C25.5451743,34.1391905 25.9666183,34.0451787 26.3411079,33.8599953 L26.3411079,34.456445 C26.3411079,34.8029538 26.2214315,35.0875456 25.9740622,35.3283976 C25.7269793,35.5692497 25.4340871,35.6868355 25.079639,35.6868355 L24.3060373,35.6868355 C23.9301162,35.6868355 23.6297801,35.584871 23.3867054,35.3772497 C23.1585187,35.1815574 23.0520124,34.936445 23.0520124,34.6081136 L23.0520124,34.2124686 L21.5291452,34.8302201 C21.579249,35.4794982 21.8529585,36.0288 22.3451203,36.4684686 C22.8793693,36.9442083 23.5390207,37.1847763 24.3060373,37.1847763 L25.079639,37.1847763 C25.8435062,37.1847763 26.507166,36.9175101 27.0514357,36.388374 C27.5957054,35.8572497 27.872278,35.2082556 27.872278,34.4595692 L27.872278,26.2694627 Z M26.6428755,42.3824095 C25.689473,42.3278769 23.615751,42.6022438 23.615751,42.6022438 C23.615751,42.8763266 23.6724398,42.821226 23.6724398,42.821226 C24.7652739,42.7661254 26.5312158,42.8490604 26.6428755,42.8490604 C26.7551079,42.8490604 26.6428755,42.3824095 26.6428755,42.3824095 Z M23.4903485,42.1228118 C24.5130373,42.0259598 25.1535062,42.0745278 26.5870456,42.0259598 C26.5572697,40.8935574 23.3388921,40.8040899 23.4903485,42.1228118 Z M22.8876722,41.1755929 C22.693556,41.1755929 22.3428299,41.1753089 22.1492863,41.1753089 C22.0757054,42.3207763 21.9608963,44.0195219 21.5981452,44.8795456 C22.1026183,44.6872615 22.6775228,44.5889893 23.0654689,44.5889893 C23.1923029,43.2208473 23.0107842,42.3025988 22.8876722,41.1755929 Z M20.5691577,28.8265278 C20.5691577,28.1170367 20.318639,27.4825278 19.8241867,26.9397586 C19.3159917,26.3827882 18.6826805,26.1001846 17.917668,26.1001846 L17.9156639,26.1001846 L14.0579627,26.2677586 L14.0579627,33.9903621 L15.5891328,33.9903621 L15.5891328,27.7225278 L17.7899751,27.5989775 L17.8904689,27.5989775 C18.2079834,27.5989775 18.4613651,27.7142911 18.687834,27.9605396 C18.9234647,28.2184331 19.0391328,28.5007527 19.0391328,28.8265278 L19.0391328,33.9903621 L20.5691577,33.5950012 L20.5691577,28.8265278 Z M20.2811328,40.0233089 C20.0787137,39.6807763 19.3320249,39.4143621 19.0482946,39.172942 C19.0757801,39.3916402 18.8727884,39.8139834 18.7115975,39.8849893 C18.4029585,40.0233089 17.5901328,39.8034746 17.1357635,39.6574864 C17.169834,40.4354272 17.2073402,41.2085396 17.4916432,41.7436402 C18.1352614,41.4851787 18.5939253,41.0426698 18.8679212,40.4169657 C19.1024066,40.6879243 19.6458174,40.8259598 20.140556,40.8466935 C20.3163485,40.6052734 20.3956556,40.2190012 20.2811328,40.0233089 Z M15.2487137,18.1114509 C15.5659419,18.1114509 15.8190373,18.2270485 16.0455062,18.472729 C16.2811369,18.7300544 16.3965187,19.012374 16.3965187,19.3387172 L16.3965187,23.9097941 L17.9268299,24.5022675 L17.9268299,19.3387172 C17.9268299,18.628942 17.6760249,17.9947172 17.1812863,17.4528 C16.6736639,16.8963976 16.0389212,16.612374 15.2942365,16.612374 C15.1748465,16.612374 14.8281286,16.6225988 13.2580207,16.7063858 L13.2580207,14.2501491 L11.7277095,14.8423385 L11.7277095,24.5022675 L13.2580207,24.5022675 L13.2580207,18.2057467 C14.3691784,18.1432615 15.0385643,18.1114509 15.2487137,18.1114509 Z M13.2585934,26.249013 L11.7277095,26.8417704 L11.7277095,33.9903621 L13.2585934,33.9903621 L13.2585934,26.249013 Z M13.498805,12.2304568 C13.6390954,12.4775574 14.0436473,12.7539124 14.4238631,12.7786225 C14.8444481,12.8073089 16.0423568,12.1026462 16.2459212,11.7640899 C16.1892324,11.5718059 13.5274357,11.9836402 13.498805,12.2304568 Z M12.6023776,10.9404213 C14.2432033,10.6183385 16.5539876,10.8316402 17.9305519,10.2601846 C18.2609502,10.1232852 18.3932241,9.39249231 18.4877054,8.99258698 C17.9757884,9.16129704 17.0143693,9.6708355 16.6398797,9.12636213 C16.4841286,8.33450414 17.4927884,7.64858698 17.885029,7.07315503 C15.8671369,6.85332071 14.6486141,7.2924213 13.1071369,7.89540355 C12.8305643,8.77616095 12.6023776,10.1996876 12.6023776,10.9404213 Z M17.6886224,8.52678817 C17.885029,8.6639716 18.3895021,8.44413728 18.3895021,8.44413728 C18.3895021,8.44413728 18.5581369,8.11552189 18.3617303,7.73095385 C18.3617303,7.73095385 17.4927884,8.38903669 17.6886224,8.52678817 Z M18.7688589,21.9250367 C18.7688589,22.6345278 19.0202365,23.2690367 19.5146888,23.8109538 C20.0228838,24.3690604 20.6579129,24.6513799 21.4025975,24.6513799 L21.4129046,24.6513799 L25.2809129,24.4832379 L25.2809129,16.7609183 L23.7497427,16.7609183 L23.7497427,23.0284686 L21.5489004,23.152871 L21.4481203,23.152871 C21.1308921,23.152871 20.878083,23.0367053 20.652473,22.7884686 C20.4151245,22.5300071 20.3006017,22.2448473 20.3006017,21.9196402 L20.3006017,16.7609183 L18.7688589,17.5513562 L18.7688589,21.9250367 Z M20.0294689,7.12711953 C20.1127842,7.24413728 20.4420373,7.65398343 20.4214232,7.92352189 C21.0942448,7.73095385 22.3694564,7.26430296 22.7333527,6.99022012 C21.6410913,6.85332071 20.6736598,6.68858698 20.0294689,7.12711953 Z M20.5055975,10.0082556 C20.5339419,10.6118059 22.0671162,9.28711953 22.0757054,9.10307219 C21.9076432,9.01985325 20.5141867,9.82335621 20.5055975,10.0082556 Z M23.6400871,7.41966391 C23.5181203,7.39040947 23.3451909,7.01720237 23.1762697,7.09104852 C22.4679461,7.40177041 21.2978091,8.09791243 20.5894855,8.44413728 C20.4783983,8.49866982 20.4637967,9.29535621 20.5084606,9.50581775 C21.5211286,8.77928521 22.6852531,8.20385325 23.6400871,7.41966391 Z M24.2891452,8.06013728 C23.586834,8.67391243 23.5564855,9.64243314 23.9782158,10.6433325 C24.4818299,10.0755692 25.2359627,8.4384568 24.2891452,8.06013728 Z M20.8136639,6.30487101 C21.8512407,6.02965207 23.5344398,6.0552142 24.4010913,6.02965207 C24.5708714,6.02482367 25.7037884,5.48120237 25.9969668,5.33351006 C26.0052697,4.76461065 26.0147178,4.19599527 26.0230207,3.62652781 C25.7876763,3.67055148 25.2016058,3.73190059 24.9470788,3.99973491 C24.1439876,4.84868166 22.4679461,5.50818462 20.8136639,6.30487101 Z M27.8934647,7.98827929 C29.1652407,7.45630296 29.7541743,7.3463858 30.469083,7.24385325 C30.2718174,6.9143858 30.1870705,6.40882367 29.9502946,6.16768757 C29.8019876,5.97256331 29.3811162,6.50681183 28.968834,6.55140355 C28.5576971,6.59571124 27.8204564,6.30487101 28.119361,5.90240947 C29.0567303,5.1372497 30.959527,5.75613728 31.3798257,5.67291834 C32.0892946,5.53431479 32.6719295,4.55670533 32.6266929,3.17663432 C31.4210539,3.61573491 29.615029,4.8239716 27.7431535,5.1443503 C27.7359959,5.92030296 27.0906598,7.35064615 27.8934647,7.98827929 Z M27.7580415,4.19599527 C28.5628506,3.72508402 29.0492863,3.37545089 29.8386349,2.84688284 C29.0624564,2.88266982 28.2682407,3.12096568 27.8204564,3.45071716 C27.7285519,3.51803077 27.7359959,4.05455148 27.7580415,4.19599527 Z M30.4407386,2.84688284 C29.7659129,3.24423195 28.8909585,4.00939172 28.9550913,4.08210178 C29.4180498,3.99973491 30.5801701,3.53393609 31.8983278,2.84688284 C31.4493983,2.79320237 30.5801701,2.76508402 30.4407386,2.84688284 Z M31.3517676,2.29871716 C31.7998382,2.32541538 32.6266929,2.43561657 32.7950415,2.38108402 C33.8520871,2.03627929 35.0465602,1.20323787 35.0794855,0.624681657 C35.0368257,0.191261538 32.5963444,1.29526154 31.3517676,2.29871716 Z M30.7356349,7.7303858 C30.0264523,7.61393609 29.0472822,8.10870533 28.1565809,8.41743905 C28.1511411,8.73298935 28.2650913,8.9999716 28.2599378,9.31608994 C29.4383776,9.54785325 30.9684025,9.52399527 31.9398423,9.0479716 C31.464,8.47140355 30.944639,7.76503669 30.7356349,7.7303858 Z M38.4979917,5.28920237 C38.6943983,5.17956923 38.6231079,4.28319053 38.9028299,4.33658698 C39.4513942,4.43855148 40.1800456,4.54790059 40.1511286,4.32891834 C39.0299502,4.08210178 38.6943983,3.61516686 38.189639,3.20418462 C37.8266017,3.57653964 38.2503361,4.94496568 38.4979917,5.28920237 Z M11.3970249,35.7987408 C10.752834,35.3596402 10.1418548,34.7609183 9.7856888,34.4334391 C9.55549793,34.5254627 8.95912033,34.8858888 8.56716598,34.9685396 C9.44240664,35.2289893 10.2065602,35.6885396 11.3970249,35.7987408 Z M9.47590456,33.9693444 C9.0919668,33.5282556 8.95912033,33.0820544 7.97823237,32.5066225 C8.1949668,33.4691787 8.03921577,33.7762083 7.62550207,34.0159243 C7.5576473,34.0551195 7.31714938,33.9801373 6.92290456,33.880729 C6.55299585,33.7864331 6.53495851,33.0553562 6.57704564,32.7798533 C6.61913278,32.5066225 7.01194606,32.4376047 6.95525726,32.368303 C6.89942739,32.3009893 6.59651452,32.2623621 6.59651452,32.2623621 C6.24951037,32.3583621 6.14958921,33.137155 6.19110373,33.4458888 C6.39695851,34.0937467 6.71275519,34.6058414 7.9146722,34.6600899 C8.3773444,34.6808237 9.20248133,34.2059361 9.47590456,33.9693444 Z M9.8953444,31.8829065 C9.3923029,31.4341491 8.8360083,31.037368 8.75985062,30.1756402 C7.50239004,29.9668828 6.34141494,29.933084 5.73272614,30.772658 C6.87394606,31.2307882 8.42258091,32.3660308 9.8953444,31.8829065 Z M6.02103734,31.8829065 C5.65198755,31.7372024 5.37885062,31.5054391 5.20363071,31.4358533 C4.30691701,32.3955692 4.37248133,33.9693444 5.37169295,34.3996402 C5.20506224,33.2064568 5.62421577,32.5614391 6.02103734,31.8829065 Z M5.40003734,30.5306698 C5.90422407,29.7075692 6.9770166,29.5453917 6.45822822,28.6589538 C5.40003734,28.2806343 4.9233361,28.6919006 4.0546805,29.1310012 C4.25681328,29.8083976 4.75527386,30.2012024 5.40003734,30.5306698 Z M3.71826971,28.4729183 C5.34420747,27.7597349 5.42809544,26.6344331 7.10929046,26.9917349 C8.02289627,26.3592142 8.03406224,24.7968 7.86571369,22.793297 C6.60453112,23.561013 5.31586307,24.6584805 3.46574689,24.604232 C3.26934025,26.0856994 3.35437344,27.5944331 3.71826971,28.4729183 Z M2.79750622,24.1074746 C3.10127801,23.5070485 3.36038589,22.8015337 3.97021992,22.1897467 C4.09991701,22.060232 4.2170166,22.0585278 4.3349751,22.1349302 C4.11051037,22.7381964 3.32602905,23.753297 3.63438174,24.0554982 C4.75527386,23.8913325 6.16991701,22.8600426 6.69242739,22.1099361 C6.8919834,21.8236402 6.69185477,21.5171787 6.77660166,21.1825988 C6.8513278,20.8840899 7.22152282,20.5625751 7.22123651,20.2143621 C6.65807054,20.0115692 5.47104149,19.6454627 5.28751867,19.720445 C4.41857676,20.0774627 0.466966805,24.2469302 2.79750622,24.1074746 Z M6.26926556,18.9515929 C6.79578423,19.0268592 7.50124481,19.3088947 8.06212033,19.4185278 C8.26654357,19.2705515 8.41284647,18.8626935 8.74811203,18.4176284 C8.11795021,18.2111432 7.47347303,18.0197112 7.36496266,17.9822201 C6.93292531,17.8328237 6.63287552,18.3761609 6.26926556,18.9515929 Z M8.56716598,27.2101491 C8.57947718,28.0494391 7.95904979,28.169013 7.95017427,28.8018178 C8.42658921,28.8270959 9.0349917,28.8009657 9.26718672,28.5822675 C9.28379253,28.0059834 9.16812448,27.5012734 8.56716598,27.2101491 Z M68.2052116,24.1929657 C67.9773112,24.3122556 67.3368423,24.5488473 66.9649295,24.2972024 C66.4584523,24.0478296 66.392888,23.7212024 66.6070456,23.2048473 C67.0276307,22.6833799 68.1490954,23.6987645 67.8685145,22.9301964 C67.7892075,22.7095101 66.5231577,22.8483976 66.1867469,23.0954982 C65.1302739,23.8708828 64.4505809,25.5500308 63.8264315,26.7625278 C64.2163817,26.6855574 65.9345104,26.4975337 65.9345104,26.7443503 C65.5998174,27.5026935 64.9624979,28.2806343 64.1413693,28.5552852 C63.9240622,28.5584095 64.3377759,27.5668828 63.6251577,27.3322793 C62.2551784,28.6015811 60.7262988,29.7143858 59.4974689,31.1242793 C62.5715477,30.5846343 63.4966058,29.1310012 63.7857759,29.4178651 C64.224971,29.6246343 63.1931203,30.112303 63.1839585,30.7453917 C66.8355187,34.0869302 60.2745062,38.1481846 57.4343402,39.2780308 C57.8832697,39.6745278 57.5597427,41.0937941 56.9670871,41.093226 C56.8265104,40.8466935 56.7660996,40.4286107 56.6521494,40.2826225 C55.8524938,39.2561609 52.9115477,38.9593562 52.7348963,39.6662911 C52.4291203,40.4706462 52.1745934,42.4928947 52.7328921,42.6917112 C53.5603195,42.7746462 54.5357676,42.0864568 55.0053112,41.6419598 C55.0903444,41.560729 55.3966929,41.1755929 55.6623859,41.1753089 C54.8255104,42.5900308 54.1838963,43.9519243 51.6420622,43.6715929 C50.4928257,43.3191195 50.8008921,41.0673799 50.6488631,39.6574864 L49.4858838,39.6574864 C49.3828133,40.5825515 49.6550913,41.8794036 49.2485353,42.5031195 C49.7621701,42.6096284 50.1841867,41.860942 50.4369959,42.2724923 C49.726668,43.0427645 48.307444,44.3580781 48.060361,44.2098178 C46.5558174,43.480445 45.2568423,42.5539598 44.8199378,40.7958533 C44.5118714,41.2014391 42.5332033,42.3278769 42.9535021,42.4102438 C43.2063112,42.5193089 44.606639,42.244658 44.9994523,42.436942 C44.7718382,43.3015101 43.5873859,44.5043503 43.4868921,44.2211787 C43.335722,42.8717822 42.3093112,42.1077586 40.928166,41.9336521 C40.8354025,43.2796402 40.4597676,43.7542438 41.0779046,44.7787172 C39.5037884,44.9582201 38.2978631,45.5046817 37.4000041,46.3559006 C37.1743942,46.5697704 36.9568008,47.1023148 36.780722,47.0540308 C35.2856266,46.2008237 33.7619004,47.8694627 33.2817635,47.812658 C33.9749129,46.0829538 35.9552988,44.164942 38.3562697,45.3467645 C38.6646224,44.224871 37.7200954,43.3679716 38.1618672,42.7118769 C36.1162033,43.5074272 33.4266349,43.769013 31.6145975,42.8817231 C31.115278,43.6693207 30.5314979,44.2066935 29.5577676,44.5228118 C29.5454564,44.968445 29.7813734,45.4555456 29.6339253,45.7265041 C28.4363029,46.1408947 28.1817759,46.0059834 27.5341494,46.3556166 C26.5584149,46.8819124 25.9019129,47.9276876 25.7178174,47.6777467 C26.0573776,45.7682556 28.0157178,45.7872852 27.7348506,43.2611787 C26.3013112,43.7715692 24.5963527,43.0930367 23.6638506,43.4509065 C23.6578382,43.8295101 23.6523983,44.2098178 23.6463859,44.5889893 C24.3449751,44.632729 24.9413527,44.776729 25.409751,44.632729 C25.907639,44.4787882 26.3631535,44.056445 26.5870456,44.2211787 C25.8661245,46.8418651 21.3888548,45.7918296 19.164249,46.2959716 C19.0757801,46.2235456 18.9641203,46.1653207 19.0325477,46.0997112 C19.8155975,45.340232 20.9238921,44.4316402 20.3793361,42.8817231 C19.632361,42.7172734 19.68361,43.3449657 19.2083402,43.4509065 C18.8123776,42.8365633 18.2947344,42.3398059 17.4853444,42.1228118 C17.1211618,44.1476166 14.0445062,44.8911905 11.7056639,44.632729 C11.465166,44.6065988 11.4811992,44.4679953 11.4451245,44.3989775 C13.0198133,44.2958769 14.2701162,43.8692734 15.1467884,43.0714509 C15.2094896,42.1361609 14.5919253,41.3136284 14.2669668,40.9353089 C12.6261411,42.3133917 8.41857261,43.181084 8.61583817,39.4688947 C9.18329876,39.0082083 11.4743278,38.3026935 11.9086556,39.4688947 C11.8548299,39.9917822 11.1820083,39.9017467 10.9283402,40.2272379 C11.6529834,40.744729 13.0369917,40.589084 13.3590871,39.8034746 C12.8196846,38.5977941 10.3041909,37.5270249 9.67546058,37.480729 C7.54877178,37.3233799 5.17070539,38.1572734 4.22274274,39.2280426 C4.15574689,39.3038769 4.02175519,39.1968 3.9696473,39.2780308 C4.95110788,37.829226 6.40440249,37.3347408 8.07557676,36.8132734 C6.46481328,36.0728237 5.78970124,35.0171077 5.59558506,34.9756402 C4.22045228,34.6830959 3.40991701,32.8903385 4.78275934,31.2430012 C2.51291701,30.2560189 1.77052282,27.1070485 2.64891286,24.4869302 C2.17851037,24.3798533 1.65456846,24.3244686 1.69207469,23.728303 C2.05511203,21.5538178 3.85856017,20.3788118 4.55915353,19.5281609 C3.15109544,19.2549302 1.37427386,18.7902675 0.483286307,19.5710485 C0.378497925,19.6619361 0.621572614,20.0979124 0.540261411,20.2211787 C0.459236515,20.344729 0.158900415,20.3242793 0.00143153527,20.3151905 C-0.0930497925,18.0197112 4.44749378,18.5408947 5.70781743,18.760445 C5.8486805,18.784871 6.29675104,18.1841609 6.81926141,17.849297 C6.15789212,17.020516 5.60589212,16.6268592 5.69178423,15.5736994 C5.7146888,15.3024568 6.19253527,14.6710722 6.63287552,14.0822911 L6.8876888,14.116374 C6.76400415,14.3339361 6.68985062,14.6236402 6.67009544,15.0048 C6.84273859,15.7693917 7.99455187,16.2385988 9.17385062,15.953155 C8.99290456,15.0545041 8.60295436,14.4586225 9.20849378,13.6775574 C8.23046888,13.9181254 7.88861826,14.1302911 7.26332365,13.9595929 L6.79406639,13.8922793 C7.38128216,13.1975574 7.81017012,12.5596402 8.37705809,12.0938414 C8.4910083,11.9998296 9.15237759,12.5976994 9.29324066,12.5763976 C9.34678008,12.5681609 9.8020083,12.2026225 9.53373859,12.1069065 C9.07078008,11.9427408 8.73494191,11.4491077 8.5803361,10.8586225 C8.47239834,10.4470722 9.28150207,9.78927337 9.44956432,9.65152189 C10.3230871,9.55580592 9.71955187,10.756942 10.6113983,10.6433325 C10.8622033,9.48053964 11.1353402,8.20839763 11.4671701,7.12711953 C11.0462988,6.47585325 10.0204606,7.68806627 9.50195851,7.23022012 C9.1973278,7.01720237 10.6534855,5.78823195 11.4107676,5.89275266 C11.6186266,5.92115503 11.0188133,6.79850414 11.8880415,6.41393609 C11.9335643,6.21171124 12.1677635,5.86491834 12.1677635,5.86491834 C11.2212324,5.5908355 14.7319295,4.51751006 14.8307054,4.68565207 C15.0789336,5.16025562 14.1859419,5.45422012 14.0739959,6.03022012 C14.5710249,5.68399527 16.8199668,4.13691834 16.8978423,4.95433846 C16.9027095,5.6351432 14.8911162,5.72120237 13.7931286,6.57895385 C13.7000788,6.65109586 13.3708257,7.11547456 13.2608838,7.37422012 C15.0826556,6.74198343 17.1294647,5.75471716 18.9641203,6.22193609 C20.5055975,5.0423858 23.8831618,3.47855148 23.5143983,3.05819645 C22.1730498,3.34165207 21.136332,4.35618462 20.9957552,4.30136805 C22.145278,2.98491834 25.8589668,1.74998343 25.4240664,3.36891834 C26.9168714,3.02695385 30.1452697,2.43675266 30.469083,2.35353373 C30.8639004,2.25185325 33.0249461,0.707332544 34.743361,0.103782249 C35.2472614,-0.0609514793 35.8075643,-0.0336852071 35.9555851,0.213983432 C36.2141203,1.0092497 34.5323527,2.13398343 33.3988631,2.67874083 C34.434722,2.80087101 35.2094689,3.33710769 35.1487718,4.21900118 C34.9016888,5.3400426 33.4461037,6.12536805 31.8001245,6.22193609 C31.783805,6.5400426 32.0117054,6.88711953 32.1886432,6.92659882 C32.4609212,6.98624379 33.4068797,6.63149822 33.7893859,6.64285917 C33.9236639,6.64768757 33.8434979,6.94420828 33.7744979,6.98255148 C33.4297842,7.17455148 32.7143029,7.04730888 32.5287759,7.20920237 C32.2728174,7.43244497 32.96339,7.85251598 33.1171369,8.27940355 C34.3788921,7.37422012 34.8547344,6.82548639 35.7508755,5.9856284 C36.0663859,5.68995976 36.0033983,4.54790059 35.8636805,3.72508402 C36.0626639,3.7404213 35.2312282,3.31978225 35.414751,3.31893018 C37.3567718,3.31268166 39.1146971,2.7863858 40.190639,1.92039763 C40.6515934,2.95964024 41.9210788,2.93237396 42.8859336,3.05819645 C41.9176432,3.91594793 39.5839544,4.58027929 39.0857801,5.90382959 C39.0385394,6.02766391 39.4960581,6.29464615 39.6752863,6.27646864 C40.4033651,5.89275266 40.6275436,5.2343858 41.0392531,5.12049231 C41.2863361,5.05175858 41.3951328,5.27471716 41.9173568,5.4263858 C44.0950083,1.06832663 50.5684108,3.84607811 53.1274232,5.94785325 C53.3112324,5.53573491 53.4775768,5.13156923 53.4363485,4.84981775 C53.3722158,4.4124213 52.600332,4.07784142 52.2647801,3.9071432 C51.7130664,3.62624379 51.9229295,4.32891834 51.4001328,3.62652781 C51.1375892,2.87500118 52.944473,4.03069349 53.6032656,4.32891834 C53.6765602,3.92787692 53.8457676,3.45270533 54.2474564,3.43481183 C54.6494315,3.41663432 55.4476556,3.91055148 55.5381286,4.24626746 C55.519805,4.36072899 55.1470332,4.02586509 54.8655934,4.10965207 C54.6763444,4.16560473 54.4472988,4.7160426 54.4785062,4.95433846 C54.9214232,5.45365207 55.2100207,6.10207811 55.8464813,6.41365207 C55.959,6.46960473 56.0431743,6.25005444 56.2100913,6.33185325 C56.7935851,6.61502485 57.9608589,7.49237396 58.6207967,7.78577041 C58.7814149,7.85706036 58.9617884,7.41085917 59.1524689,7.3463858 C59.2701411,6.91694201 57.8763983,6.68290651 58.526029,6.28186509 C59.4788589,6.29777041 60.4935311,7.16659882 60.2745062,7.51111953 C59.5097801,8.10643314 58.2004979,8.58132071 57.0240622,8.22515503 C57.7796266,8.8224568 58.1217635,9.58733254 58.4524481,9.48650414 C59.2652739,9.2399716 60.4153693,8.90169941 61.0022988,9.51405444 C61.2310581,9.75263432 60.9186971,10.0630722 60.3867386,10.2272379 C60.2490249,10.2900071 59.9472573,10.0576757 59.6855726,9.95315503 C59.25239,9.78075266 58.8418257,9.69952189 58.8444025,9.98070533 C58.9566349,10.7978414 58.4200954,10.6700308 58.4472946,11.4016757 C58.8730332,11.7910722 59.2080124,11.188374 59.4894523,11.1329893 C59.7691743,11.0784568 60.4116473,11.188658 60.5261701,11.6820071 C60.6429834,12.0739598 59.2366432,11.7910722 59.9655809,12.6141728 C60.8748921,12.3199243 61.787639,12.2844213 62.7968714,12.6420071 C63.4127178,12.1208237 61.6379004,11.4905751 61.9829004,11.1329893 C62.0398755,10.9412734 62.3250373,10.589084 62.5715477,10.7487053 C63.6995975,11.4746698 63.5701867,13.5449183 62.6259461,14.6625515 C62.3923195,14.9386225 62.4601743,15.5498414 62.6382573,15.953155 C62.8524149,16.2087763 63.7482697,15.6597586 64.1413693,16.0167763 C64.5333237,16.3735101 62.419805,18.8311669 62.5162905,18.9248947 C62.5950249,19.001013 62.7006722,18.9442083 62.7736805,18.9484686 C62.9583485,18.9603976 65.0168963,16.0559716 65.1503154,16.0167763 C65.4300373,15.9341254 65.837166,15.9792852 65.7950788,16.0710249 C64.9856888,17.0645396 64.2238257,18.0432852 63.556444,19.1768237 C63.8367386,19.2804923 64.561668,18.9555692 64.5227303,19.3668355 C64.5041203,19.8971077 64.158834,20.3788118 63.8284357,20.5577467 C63.6168548,20.6719243 63.4107137,20.4674272 63.3010581,20.7074272 C63.9211992,21.0993799 63.8630788,22.2689893 63.3010581,22.9855811 C63.1544689,23.1716166 63.6368963,23.2599479 63.9735934,23.2318296 C65.4300373,20.3788118 70.6697427,22.9000899 68.2052116,24.1929657 Z M24.0580954,27.5989775 L26.3411079,27.7233799 L26.3411079,31.4159716 C26.3411079,31.7590722 26.2214315,32.0419598 25.9740622,32.2819598 C25.7269793,32.5228118 25.4340871,32.6392615 25.079639,32.6392615 L24.1534357,32.6392615 C23.7955519,32.6392615 23.5026598,32.5228118 23.2575809,32.2819598 C23.0122158,32.0394036 22.8922531,31.7533917 22.8922531,31.4071669 L22.8922531,28.8248237 C22.8922531,28.492516 23.0076349,28.2082083 23.2458423,27.9576994 C23.4746017,27.7159953 23.7328506,27.6023858 24.0580954,27.5989775 Z" mask="url(#b)"/>
  </g>
</svg>
